SplineFontDB: 3.2
FontName: Assegai-Rounded
FullName: Assegai Rounded
FamilyName: Assegai Rounded
Weight: Regular
Copyright: Assegai Rounded remake by NR74W (2021).\nOriginal font design by Edd Wainwright (2007).
UComments: "2021-9-14: Created with FontForge (http://fontforge.org)"
FontLog: "The Assegai Rounded font from WipEout Pulse, released for the PlayStation Portable in 2007.+AAoA-Made by Edd Wainwright from Studio Liverpool.+AAoACgAA-Version 1.0.+AAoA-Homepage: https://github.com/NR74W/WipEout-Fonts+AAoACgAA-This unique typeface was created for the Assegai Developments logo and their billboards in WipEout Pulse, and is almost identical to the one used in WipEout Pure.+AAoA-It is reminiscent of the Prototype AS-ULAR font made by The Designers Republic for the company's logotype in Wip3out.+AAoACgAA-The original font most likely used kerning, it was not possible to replicate it so the same spacing size was used for all characters (100EM).+AAoA-The numbers 0 and 4 to 9 had to be created due to lack of source materials, and no special characters could be added (perhaps they never existed).+AAoA-It is possible that some of the capital letters were different, the +ACIA-Achieve Your Destiny+ACIA billboard used a different E / H / R / T. These have been added in the PUA.+AAoACgAA-It was only possible to remake this font thanks to an artwork found on the designer's website, at: https://eddwainwright.com+AAoACgAA--- NR74W (2021)"
Version: 1.00
ItalicAngle: 0
UnderlinePosition: -100
UnderlineWidth: 50
Ascent: 800
Descent: 200
InvalidEm: 0
LayerCount: 2
Layer: 0 0 "Arri+AOgA-re" 1
Layer: 1 0 "Avant" 0
XUID: [1021 17 266829378 30504]
StyleMap: 0x0040
FSType: 0
OS2Version: 0
OS2_WeightWidthSlopeOnly: 0
OS2_UseTypoMetrics: 1
CreationTime: 1631655603
ModificationTime: 1634763519
PfmFamily: 81
TTFWeight: 400
TTFWidth: 5
LineGap: 90
VLineGap: 0
OS2TypoAscent: 0
OS2TypoAOffset: 1
OS2TypoDescent: 0
OS2TypoDOffset: 1
OS2TypoLinegap: 90
OS2WinAscent: 0
OS2WinAOffset: 1

StartChar: zero
Encoding: 48 48 0
Width: 700
VWidth: 1024
Flags: W
HStem: 0 100<154.765 445.235> 500 100<154.765 445.235>
VStem: 0 100<154.765 445.235> 500 100<154.765 445.235>
LayerCount: 2
Fore
SplineSet
100 220 m 17
 100 154 154 100 220 100 c 1
 380 100 l 1
 446 100 500 154 500 220 c 9
 500 380 l 17
 500 446 446 500 380 500 c 1
 220 500 l 1
 154 500 100 446 100 380 c 9
 100 220 l 17
0 220 m 9
 0 380 l 17
 0 501 99 600 220 600 c 1
 380 600 l 1
 501 600 600 501 600 380 c 9
 600 220 l 17
 600 99 501 0 380 0 c 1
 220 0 l 1
 99 0 0 99 0 220 c 9
EndSplineSet
Validated: 1
EndChar

StartChar: one
Encoding: 49 49 1
Width: 200
VWidth: 1024
Flags: W
HStem: 0 21G<36 64> 580 20G<36 64>
VStem: 0 100<8.4375 591.562>
LayerCount: 2
Fore
SplineSet
0 50 m 1
 0 550 l 1
 0 578 22 600 50 600 c 1
 78 600 100 578 100 550 c 1
 100 50 l 1
 100 22 78 0 50 0 c 1
 22 0 0 22 0 50 c 1
EndSplineSet
Validated: 1
EndChar

StartChar: two
Encoding: 50 50 2
Width: 670
VWidth: 1024
Flags: W
HStem: 0 100<112.427 551.562> 250 100<112.427 457.573> 500 100<18.4375 457.573>
VStem: 0 100<112.427 237.573> 470 100<362.427 487.573>
CounterMasks: 1 e0
LayerCount: 2
Fore
SplineSet
0 155 m 9
 0 195 l 17
 0 281 69 350 155 350 c 9
 415 350 l 17
 445 350 470 375 470 405 c 9
 470 445 l 17
 470 475 445 500 415 500 c 9
 60 500 l 17
 32 500 10 522 10 550 c 1
 10 578 32 600 60 600 c 9
 415 600 l 17
 501 600 570 531 570 445 c 9
 570 405 l 17
 570 319 501 250 415 250 c 9
 155 250 l 17
 125 250 100 225 100 195 c 9
 100 155 l 17
 100 125 125 100 155 100 c 9
 510 100 l 17
 538 100 560 78 560 50 c 1
 560 22 538 0 510 0 c 9
 155 0 l 17
 69 0 0 69 0 155 c 9
EndSplineSet
Validated: 1
EndChar

StartChar: three
Encoding: 51 51 3
Width: 660
VWidth: 1024
Flags: W
HStem: 0 100<8.4375 447.573> 250 100<228.438 448.153> 500 100<8.4375 447.573>
VStem: 460 100<112.427 237.127 362.873 487.573>
CounterMasks: 1 e0
LayerCount: 2
Fore
SplineSet
0 50 m 0
 0 78 22 100 50 100 c 2
 405 100 l 2
 435 100 460 125 460 155 c 2
 460 195 l 2
 460 225 435 250 405 250 c 2
 270 250 l 2
 242 250 220 272 220 300 c 0
 220 328 242 350 270 350 c 2
 405 350 l 2
 435 350 460 375 460 405 c 2
 460 445 l 2
 460 475 435 500 405 500 c 2
 50 500 l 2
 22 500 0 522 0 550 c 0
 0 578 22 600 50 600 c 2
 405 600 l 2
 491 600 560 531 560 445 c 2
 560 405 l 2
 560 364 545 328 519 300 c 1
 545 272 560 236 560 195 c 2
 560 155 l 2
 560 69 491 0 405 0 c 2
 50 0 l 2
 22 0 0 22 0 50 c 0
EndSplineSet
Validated: 1
EndChar

StartChar: four
Encoding: 52 52 4
Width: 620
VWidth: 1024
Flags: W
HStem: 0 21G<456 484> 250 100<154.765 420> 580 20G<36 64 456 484>
VStem: 0 100<404.765 591.562> 420 100<8.4375 250 350 591.562>
LayerCount: 2
Fore
SplineSet
0 470 m 1
 0 550 l 1
 0 578 22 600 50 600 c 1
 78 600 100 578 100 550 c 1
 100 470 l 1
 100 404 154 350 220 350 c 1
 420 350 l 1
 420 550 l 1
 420 578 442 600 470 600 c 1
 498 600 520 578 520 550 c 1
 520 50 l 1
 520 22 498 0 470 0 c 1
 442 0 420 22 420 50 c 1
 420 250 l 1
 220 250 l 1
 99 250 0 349 0 470 c 1
EndSplineSet
Validated: 1
EndChar

StartChar: five
Encoding: 53 53 5
Width: 670
VWidth: 1024
Flags: W
HStem: 0 100<18.4375 457.573> 250 100<112.427 457.573> 500 100<112.427 551.562>
VStem: 0 100<362.427 487.573> 470 100<112.427 237.573>
LayerCount: 2
Fore
SplineSet
10 50 m 1
 10 78 32 100 60 100 c 9
 415 100 l 17
 445 100 470 125 470 155 c 9
 470 195 l 17
 470 225 445 250 415 250 c 9
 155 250 l 17
 69 250 0 319 0 405 c 9
 0 445 l 17
 0 531 69 600 155 600 c 9
 510 600 l 17
 538 600 560 578 560 550 c 1
 560 522 538 500 510 500 c 9
 155 500 l 17
 125 500 100 475 100 445 c 9
 100 405 l 17
 100 375 125 350 155 350 c 9
 415 350 l 17
 501 350 570 281 570 195 c 9
 570 155 l 17
 570 69 501 0 415 0 c 9
 60 0 l 17
 32 0 10 22 10 50 c 1
EndSplineSet
Validated: 1
EndChar

StartChar: six
Encoding: 54 54 6
Width: 680
VWidth: 1024
Flags: W
HStem: 0 100<154.765 467.573> 250 100<100 467.573> 500 100<154.765 571.562>
VStem: 0 100<154.765 250 350 445.235> 480 100<112.427 237.573>
CounterMasks: 1 e0
LayerCount: 2
Fore
SplineSet
0 220 m 9
 0 380 l 17
 0 501 99 600 220 600 c 1
 530 600 l 1
 558 600 580 578 580 550 c 1
 580 522 558 500 530 500 c 1
 220 500 l 1
 154 500 100 446 100 380 c 1
 100 350 l 1
 425 350 l 1
 511 350 580 281 580 195 c 9
 580 155 l 17
 580 69 511 0 425 0 c 1
 220 0 l 1
 99 0 0 99 0 220 c 9
100 250 m 1
 100 220 l 1
 100 154 154 100 220 100 c 1
 425 100 l 1
 455 100 480 125 480 155 c 9
 480 195 l 17
 480 225 455 250 425 250 c 1
 100 250 l 1
EndSplineSet
Validated: 1
EndChar

StartChar: seven
Encoding: 55 55 7
Width: 590
VWidth: 1024
Flags: W
HStem: 0 21G<426 454> 500 100<8.4375 335.235>
VStem: 390 100<8.4375 445.235>
LayerCount: 2
Fore
SplineSet
0 550 m 1
 0 578 22 600 50 600 c 1
 270 600 l 1
 391 600 490 501 490 380 c 1
 490 50 l 1
 490 22 468 0 440 0 c 1
 412 0 390 22 390 50 c 1
 390 380 l 1
 390 446 336 500 270 500 c 1
 50 500 l 1
 22 500 0 522 0 550 c 1
EndSplineSet
Validated: 1
EndChar

StartChar: eight
Encoding: 56 56 8
Width: 670
VWidth: 1024
Flags: W
HStem: 0 100<112.427 457.573> 250 100<111.847 458.153> 500 100<112.427 457.573>
VStem: 0 100<112.427 237.127 362.873 487.573> 470 100<112.427 237.127 362.873 487.573>
CounterMasks: 1 e0
LayerCount: 2
Fore
SplineSet
100 155 m 2
 100 125 125 100 155 100 c 1
 415 100 l 2
 445 100 470 125 470 155 c 2
 470 195 l 2
 470 225 445 250 415 250 c 2
 155 250 l 1
 125 250 100 225 100 195 c 2
 100 155 l 2
100 405 m 2
 100 375 125 350 155 350 c 1
 415 350 l 2
 445 350 470 375 470 405 c 2
 470 445 l 2
 470 475 445 500 415 500 c 2
 155 500 l 1
 125 500 100 475 100 445 c 2
 100 405 l 2
0 155 m 2
 0 195 l 2
 0 236 15 272 41 300 c 1
 15 328 0 364 0 405 c 2
 0 445 l 2
 0 531 69 600 155 600 c 1
 415 600 l 2
 501 600 570 531 570 445 c 2
 570 405 l 2
 570 364 555 328 529 300 c 1
 555 272 570 236 570 195 c 2
 570 155 l 2
 570 69 501 0 415 0 c 2
 155 0 l 1
 69 0 0 69 0 155 c 2
EndSplineSet
Validated: 1
EndChar

StartChar: nine
Encoding: 57 57 9
Width: 680
VWidth: 1024
Flags: W
HStem: 0 100<8.4375 425.235> 250 100<112.427 480> 500 100<112.427 425.235>
VStem: 0 100<362.427 487.573> 480 100<154.765 250 350 445.235>
CounterMasks: 1 e0
LayerCount: 2
Fore
SplineSet
0 50 m 1
 0 78 22 100 50 100 c 1
 360 100 l 1
 426 100 480 154 480 220 c 1
 480 250 l 9
 155 250 l 17
 69 250 0 319 0 405 c 9
 0 445 l 17
 0 531 69 600 155 600 c 1
 360 600 l 1
 481 600 580 501 580 380 c 9
 580 220 l 17
 580 99 481 0 360 0 c 1
 50 0 l 1
 22 0 0 22 0 50 c 1
100 405 m 17
 100 375 125 350 155 350 c 9
 480 350 l 17
 480 380 l 1
 480 446 426 500 360 500 c 1
 155 500 l 1
 125 500 100 475 100 445 c 9
 100 405 l 17
EndSplineSet
Validated: 1
EndChar

StartChar: A
Encoding: 65 65 10
Width: 700
VWidth: 1024
Flags: W
HStem: 0 100<100 500> 500 100<154.765 445.235>
VStem: 0 100<100 445.235> 500 100<100 445.235>
LayerCount: 2
Fore
SplineSet
100 100 m 1
 500 100 l 1
 500 380 l 1
 500 446 446 500 380 500 c 9
 220 500 l 17
 154 500 100 446 100 380 c 1
 100 100 l 1
0 50 m 1
 0 380 l 1
 0 501 99 600 220 600 c 9
 380 600 l 17
 501 600 600 501 600 380 c 1
 600 50 l 1
 600 22 578 0 550 0 c 1
 50 0 l 1
 22 0 0 22 0 50 c 1
EndSplineSet
Validated: 1
EndChar

StartChar: B
Encoding: 66 66 11
Width: 670
VWidth: 1024
Flags: W
HStem: 0 100<100 457.573> 250 100<100 458.153> 500 100<154.765 457.573>
VStem: 0 100<100 250 350 445.235> 470 100<112.427 237.127 362.873 487.573>
CounterMasks: 1 e0
LayerCount: 2
Fore
SplineSet
0 50 m 1
 0 380 l 1
 0 501 99 600 220 600 c 1
 415 600 l 2
 501 600 570 531 570 445 c 2
 570 405 l 2
 570 364 555 328 529 300 c 1
 555 272 570 236 570 195 c 2
 570 155 l 2
 570 69 501 0 415 0 c 2
 50 0 l 1
 22 0 0 22 0 50 c 1
100 350 m 1
 415 350 l 2
 445 350 470 375 470 405 c 2
 470 445 l 2
 470 475 445 500 415 500 c 2
 220 500 l 1
 154 500 100 446 100 380 c 1
 100 350 l 1
100 100 m 1
 415 100 l 2
 445 100 470 125 470 155 c 2
 470 195 l 2
 470 225 445 250 415 250 c 2
 100 250 l 1
 100 100 l 1
EndSplineSet
Validated: 1
EndChar

StartChar: C
Encoding: 67 67 12
Width: 700
VWidth: 1024
Flags: W
HStem: 0 100<154.765 591.562> 500 100<154.765 591.562>
VStem: 0 100<154.765 445.235>
LayerCount: 2
Fore
SplineSet
0 220 m 9
 0 380 l 17
 0 501 99 600 220 600 c 1
 550 600 l 1
 578 600 600 578 600 550 c 1
 600 522 578 500 550 500 c 1
 220 500 l 1
 154 500 100 446 100 380 c 9
 100 220 l 17
 100 154 154 100 220 100 c 1
 550 100 l 1
 578 100 600 78 600 50 c 1
 600 22 578 0 550 0 c 1
 220 0 l 1
 99 0 0 99 0 220 c 9
EndSplineSet
Validated: 1
EndChar

StartChar: D
Encoding: 68 68 13
Width: 700
VWidth: 1024
Flags: W
HStem: 0 100<100 445.235> 500 100<100 445.235>
VStem: 0 100<100 500> 500 100<154.765 445.235>
LayerCount: 2
Fore
SplineSet
100 100 m 1
 380 100 l 1
 446 100 500 154 500 220 c 9
 500 380 l 17
 500 446 446 500 380 500 c 1
 100 500 l 1
 100 100 l 1
0 50 m 1
 0 550 l 1
 0 578 22 600 50 600 c 1
 380 600 l 1
 501 600 600 501 600 380 c 9
 600 220 l 17
 600 99 501 0 380 0 c 1
 50 0 l 1
 22 0 0 22 0 50 c 1
EndSplineSet
Validated: 1
EndChar

StartChar: E
Encoding: 69 69 14
Width: 680
VWidth: 1024
Flags: W
HStem: 0 100<154.765 571.562> 250 100<100 467.573> 500 100<154.765 467.573>
VStem: 0 100<154.765 250 350 445.235> 480 100<362.427 487.573>
CounterMasks: 1 e0
LayerCount: 2
Fore
SplineSet
0 220 m 9
 0 380 l 17
 0 501 99 600 220 600 c 1
 425 600 l 1
 511 600 580 531 580 445 c 9
 580 405 l 17
 580 319 511 250 425 250 c 9
 100 250 l 17
 100 220 l 1
 100 154 154 100 220 100 c 1
 530 100 l 1
 558 100 580 78 580 50 c 1
 580 22 558 0 530 0 c 1
 220 0 l 1
 99 0 0 99 0 220 c 9
100 350 m 9
 425 350 l 17
 455 350 480 375 480 405 c 9
 480 445 l 17
 480 475 455 500 425 500 c 1
 220 500 l 1
 154 500 100 446 100 380 c 1
 100 350 l 9
EndSplineSet
Validated: 1
EndChar

StartChar: F
Encoding: 70 70 15
Width: 530
VWidth: 1024
Flags: W
HStem: 0 21G<36 64> 0 21G<36 64> 250 100<100 401.562> 500 100<154.765 421.562>
VStem: 0 100<8.4375 250 350 445.235>
LayerCount: 2
Fore
SplineSet
0 50 m 1xb8
 0 380 l 1
 0 501 99 600 220 600 c 1
 380 600 l 1
 408 600 430 578 430 550 c 1
 430 522 408 500 380 500 c 1
 220 500 l 1
 154 500 100 446 100 380 c 1
 100 350 l 1
 360 350 l 1
 388 350 410 328 410 300 c 1
 410 272 388 250 360 250 c 1
 100 250 l 1
 100 50 l 1
 100 22 78 0 50 0 c 1
 22 0 0 22 0 50 c 1xb8
EndSplineSet
Validated: 1
EndChar

StartChar: G
Encoding: 71 71 16
Width: 680
VWidth: 1024
Flags: W
HStem: 0 100<154.765 467.573> 250 100<223.438 467.573> 500 100<154.765 571.562>
VStem: 0 100<154.765 445.235> 480 100<112.427 237.573>
CounterMasks: 1 e0
LayerCount: 2
Fore
SplineSet
0 220 m 9
 0 380 l 17
 0 501 99 600 220 600 c 1
 530 600 l 1
 558 600 580 578 580 550 c 1
 580 522 558 500 530 500 c 1
 220 500 l 1
 154 500 100 446 100 380 c 1
 100 220 l 1
 100 154 154 100 220 100 c 1
 425 100 l 1
 455 100 480 125 480 155 c 9
 480 195 l 17
 480 225 455 250 425 250 c 1
 265 250 l 1
 237 250 215 272 215 300 c 1
 215 328 237 350 265 350 c 1
 425 350 l 1
 511 350 580 281 580 195 c 9
 580 155 l 17
 580 69 511 0 425 0 c 1
 220 0 l 1
 99 0 0 99 0 220 c 9
EndSplineSet
Validated: 1
EndChar

StartChar: H
Encoding: 72 72 17
Width: 620
VWidth: 1024
Flags: W
HStem: 0 21G<36 64 456 484> 0 21G<36 64 456 484> 270 100<100 365.235> 580 20G<36 64> 580 20G<36 64>
VStem: 0 100<8.4375 270 370 591.562> 420 100<8.4375 215.235>
LayerCount: 2
Fore
SplineSet
0 50 m 1xb6
 0 550 l 1
 0 578 22 600 50 600 c 1
 78 600 100 578 100 550 c 1
 100 370 l 1
 300 370 l 1
 421 370 520 271 520 150 c 1
 520 50 l 1
 520 22 498 0 470 0 c 1
 442 0 420 22 420 50 c 1
 420 150 l 1
 420 216 366 270 300 270 c 1
 100 270 l 1
 100 50 l 1
 100 22 78 0 50 0 c 1
 22 0 0 22 0 50 c 1xb6
EndSplineSet
Validated: 1
EndChar

StartChar: I
Encoding: 73 73 18
Width: 200
VWidth: 1024
Flags: W
HStem: 0 21G<36 64> 580 20G<36 64>
VStem: 0 100<8.4375 591.562>
LayerCount: 2
Fore
SplineSet
0 50 m 1
 0 550 l 1
 0 578 22 600 50 600 c 1
 78 600 100 578 100 550 c 1
 100 50 l 1
 100 22 78 0 50 0 c 1
 22 0 0 22 0 50 c 1
EndSplineSet
Validated: 1
EndChar

StartChar: J
Encoding: 74 74 19
Width: 640
VWidth: 1024
Flags: W
HStem: 0 100<8.4375 385.235> 580 20G<476 504>
VStem: 440 100<154.765 591.562>
LayerCount: 2
Fore
SplineSet
0 50 m 1
 0 78 22 100 50 100 c 1
 320 100 l 1
 386 100 440 154 440 220 c 1
 440 550 l 1
 440 578 462 600 490 600 c 1
 518 600 540 578 540 550 c 1
 540 220 l 1
 540 99 441 0 320 0 c 1
 50 0 l 1
 22 0 0 22 0 50 c 1
EndSplineSet
Validated: 1
EndChar

StartChar: K
Encoding: 75 75 20
Width: 620
VWidth: 1024
Flags: W
HStem: 0 21G<36 64 456 484> 270 100<100 240> 500 100<394.765 501.562>
VStem: 0 100<8.4375 270 370 591.562> 240 100<370 445.235> 420 100<8.4375 216.973>
LayerCount: 2
Fore
SplineSet
0 50 m 2
 0 550 l 2
 0 578 22 600 50 600 c 0
 78 600 100 578 100 550 c 2
 100 370 l 1
 240 370 l 1
 240 380 l 2
 240 501 339 600 460 600 c 0
 488 600 510 578 510 550 c 0
 510 522 488 500 460 500 c 0
 394 500 340 446 340 380 c 2
 340 366 l 1
 442 347 520 257 520 150 c 2
 520 50 l 2
 520 22 498 0 470 0 c 0
 442 0 420 22 420 50 c 2
 420 150 l 2
 420 216 366 270 300 270 c 2
 100 270 l 1
 100 50 l 2
 100 22 78 0 50 0 c 0
 22 0 0 22 0 50 c 2
EndSplineSet
Validated: 1
EndChar

StartChar: L
Encoding: 76 76 21
Width: 640
VWidth: 1024
Flags: W
HStem: 0 100<154.765 531.562> 580 20G<36 64>
VStem: 0 100<154.765 591.562>
LayerCount: 2
Fore
SplineSet
0 220 m 1
 0 550 l 1
 0 578 22 600 50 600 c 1
 78 600 100 578 100 550 c 1
 100 220 l 1
 100 154 154 100 220 100 c 1
 490 100 l 1
 518 100 540 78 540 50 c 1
 540 22 518 0 490 0 c 1
 220 0 l 1
 99 0 0 99 0 220 c 1
EndSplineSet
Validated: 1
EndChar

StartChar: M
Encoding: 77 77 22
Width: 670
VWidth: 1024
Flags: W
HStem: 0 21G<36 64 271 299 506 534> 500 100<112.427 222.127 347.873 457.573>
VStem: 0 100<8.4375 487.573> 235 100<8.4375 488.153> 470 100<8.4375 487.573>
CounterMasks: 1 38
LayerCount: 2
Fore
SplineSet
0 50 m 2
 0 445 l 2
 0 531 69 600 155 600 c 2
 180 600 l 2
 221 600 257 585 285 559 c 1
 313 585 349 600 390 600 c 2
 415 600 l 2
 501 600 570 531 570 445 c 2
 570 50 l 2
 570 22 548 0 520 0 c 0
 492 0 470 22 470 50 c 2
 470 445 l 2
 470 475 445 500 415 500 c 2
 390 500 l 2
 360 500 335 475 335 445 c 2
 335 50 l 2
 335 22 313 0 285 0 c 0
 257 0 235 22 235 50 c 2
 235 445 l 2
 235 475 210 500 180 500 c 2
 155 500 l 2
 125 500 100 475 100 445 c 2
 100 50 l 2
 100 22 78 0 50 0 c 0
 22 0 0 22 0 50 c 2
EndSplineSet
Validated: 1
EndChar

StartChar: N
Encoding: 78 78 23
Width: 700
VWidth: 1024
Flags: W
HStem: 0 21G<36 64 536 564> 500 100<154.765 445.235>
VStem: 0 100<8.4375 445.235> 500 100<8.4375 445.235>
LayerCount: 2
Fore
SplineSet
0 50 m 1
 0 380 l 1
 0 501 99 600 220 600 c 9
 380 600 l 17
 501 600 600 501 600 380 c 1
 600 50 l 1
 600 22 578 0 550 0 c 1
 522 0 500 22 500 50 c 1
 500 380 l 1
 500 446 446 500 380 500 c 9
 220 500 l 17
 154 500 100 446 100 380 c 1
 100 50 l 1
 100 22 78 0 50 0 c 1
 22 0 0 22 0 50 c 1
EndSplineSet
Validated: 1
EndChar

StartChar: O
Encoding: 79 79 24
Width: 700
VWidth: 1024
Flags: W
HStem: 0 100<154.765 445.235> 500 100<154.765 445.235>
VStem: 0 100<154.765 445.235> 500 100<154.765 445.235>
LayerCount: 2
Fore
SplineSet
100 220 m 17
 100 154 154 100 220 100 c 1
 380 100 l 1
 446 100 500 154 500 220 c 9
 500 380 l 17
 500 446 446 500 380 500 c 1
 220 500 l 1
 154 500 100 446 100 380 c 9
 100 220 l 17
0 220 m 9
 0 380 l 17
 0 501 99 600 220 600 c 1
 380 600 l 1
 501 600 600 501 600 380 c 9
 600 220 l 17
 600 99 501 0 380 0 c 1
 220 0 l 1
 99 0 0 99 0 220 c 9
EndSplineSet
Validated: 1
EndChar

StartChar: P
Encoding: 80 80 25
Width: 680
VWidth: 1024
Flags: W
HStem: 0 21G<36 64> 250 100<100 467.573> 500 100<154.765 467.573>
VStem: 0 100<8.4375 250 350 445.235> 480 100<362.427 487.573>
LayerCount: 2
Fore
SplineSet
0 50 m 1
 0 380 l 1
 0 501 99 600 220 600 c 1
 425 600 l 1
 511 600 580 531 580 445 c 9
 580 405 l 17
 580 319 511 250 425 250 c 9
 100 250 l 17
 100 50 l 1
 100 22 78 0 50 0 c 1
 22 0 0 22 0 50 c 1
100 350 m 9
 425 350 l 17
 455 350 480 375 480 405 c 9
 480 445 l 17
 480 475 455 500 425 500 c 1
 220 500 l 1
 154 500 100 446 100 380 c 1
 100 350 l 9
EndSplineSet
Validated: 1
EndChar

StartChar: Q
Encoding: 81 81 26
Width: 740
VWidth: 1024
Flags: W
HStem: 0 100<154.765 408.998> 10 101<571 630.883> 500 100<154.765 445.235>
VStem: 0 100<154.765 445.235> 370 100<168.852 271.562> 500 100<168.402 445.235>
LayerCount: 2
Fore
SplineSet
0 220 m 2xbc
 0 380 l 2
 0 501 99 600 220 600 c 2
 380 600 l 2
 501 600 600 501 600 380 c 2
 600 220 l 2
 600 181 590 144 571 111 c 1
 577 111 584 110 590 110 c 0
 618 110 640 88 640 60 c 0
 640 32 618 10 590 10 c 0x7c
 556 10 523 18 494 32 c 1
 461 12 422 0 380 0 c 2
 220 0 l 2
 99 0 0 99 0 220 c 2xbc
100 220 m 2
 100 154 154 100 220 100 c 2
 380 100 l 2xbc
 390 100 400 101 410 104 c 1
 385 140 370 183 370 230 c 0
 370 258 392 280 420 280 c 0
 448 280 470 258 470 230 c 0
 470 207 477 186 488 167 c 1
 496 183 500 201 500 220 c 2
 500 380 l 2
 500 446 446 500 380 500 c 2
 220 500 l 2
 154 500 100 446 100 380 c 2
 100 220 l 2
EndSplineSet
Validated: 1
EndChar

StartChar: R
Encoding: 82 82 27
Width: 590
VWidth: 1024
Flags: W
HStem: 0 21G<36 64> 0 21G<36 64> 500 100<154.765 481.562>
VStem: 0 100<8.4375 445.235>
LayerCount: 2
Fore
SplineSet
0 50 m 1xb0
 0 380 l 1
 0 501 99 600 220 600 c 1
 440 600 l 1
 468 600 490 578 490 550 c 1
 490 522 468 500 440 500 c 1
 220 500 l 1
 154 500 100 446 100 380 c 1
 100 50 l 1
 100 22 78 0 50 0 c 1
 22 0 0 22 0 50 c 1xb0
EndSplineSet
Validated: 1
EndChar

StartChar: S
Encoding: 83 83 28
Width: 670
VWidth: 1024
Flags: W
HStem: 0 100<18.4375 457.573> 250 100<112.427 457.573> 500 100<112.427 551.562>
VStem: 0 100<362.427 487.573> 470 100<112.427 237.573>
CounterMasks: 1 e0
LayerCount: 2
Fore
SplineSet
10 50 m 1
 10 78 32 100 60 100 c 9
 415 100 l 17
 445 100 470 125 470 155 c 9
 470 195 l 17
 470 225 445 250 415 250 c 9
 155 250 l 17
 69 250 0 319 0 405 c 9
 0 445 l 17
 0 531 69 600 155 600 c 9
 510 600 l 17
 538 600 560 578 560 550 c 1
 560 522 538 500 510 500 c 9
 155 500 l 17
 125 500 100 475 100 445 c 9
 100 405 l 17
 100 375 125 350 155 350 c 9
 415 350 l 17
 501 350 570 281 570 195 c 9
 570 155 l 17
 570 69 501 0 415 0 c 9
 60 0 l 17
 32 0 10 22 10 50 c 1
EndSplineSet
Validated: 1
EndChar

StartChar: T
Encoding: 84 84 29
Width: 640
VWidth: 1024
Flags: W
HStem: 0 100<154.765 531.562> 250 100<100 531.562> 580 20G<36 64>
VStem: 0 100<154.765 250 350 591.562>
LayerCount: 2
Fore
SplineSet
0 220 m 1
 0 550 l 1
 0 578 22 600 50 600 c 1
 78 600 100 578 100 550 c 1
 100 350 l 1
 490 350 l 1
 518 350 540 328 540 300 c 1
 540 272 518 250 490 250 c 1
 100 250 l 1
 100 220 l 1
 100 154 154 100 220 100 c 1
 490 100 l 1
 518 100 540 78 540 50 c 1
 540 22 518 0 490 0 c 1
 220 0 l 1
 99 0 0 99 0 220 c 1
EndSplineSet
Validated: 1
EndChar

StartChar: U
Encoding: 85 85 30
Width: 700
VWidth: 1024
Flags: W
HStem: 0 100<154.765 445.235> 500 100<100 500>
VStem: 0 100<154.765 500> 500 100<154.765 500>
LayerCount: 2
Fore
SplineSet
100 220 m 1
 100 154 154 100 220 100 c 9
 380 100 l 17
 446 100 500 154 500 220 c 1
 500 500 l 1
 100 500 l 1
 100 220 l 1
0 220 m 1
 0 550 l 1
 0 578 22 600 50 600 c 1
 550 600 l 1
 578 600 600 578 600 550 c 1
 600 220 l 1
 600 99 501 0 380 0 c 9
 220 0 l 17
 99 0 0 99 0 220 c 1
EndSplineSet
Validated: 1
EndChar

StartChar: V
Encoding: 86 86 31
Width: 700
VWidth: 1024
Flags: W
HStem: 0 100<154.765 445.235> 580 20G<36 64 536 564>
VStem: 0 100<154.765 591.562> 500 100<154.765 591.562>
LayerCount: 2
Fore
SplineSet
0 220 m 1
 0 550 l 1
 0 578 22 600 50 600 c 1
 78 600 100 578 100 550 c 1
 100 220 l 1
 100 154 154 100 220 100 c 9
 380 100 l 17
 446 100 500 154 500 220 c 1
 500 550 l 1
 500 578 522 600 550 600 c 1
 578 600 600 578 600 550 c 1
 600 220 l 1
 600 99 501 0 380 0 c 9
 220 0 l 17
 99 0 0 99 0 220 c 1
EndSplineSet
Validated: 1
EndChar

StartChar: W
Encoding: 87 87 32
Width: 670
VWidth: 1024
Flags: W
HStem: 0 100<112.427 222.127 347.873 457.573> 580 20G<36 64 271 299 506 534>
VStem: 0 100<112.427 591.562> 235 100<111.847 591.562> 470 100<112.427 591.562>
CounterMasks: 1 38
LayerCount: 2
Fore
SplineSet
0 155 m 2
 0 550 l 2
 0 578 22 600 50 600 c 0
 78 600 100 578 100 550 c 2
 100 155 l 2
 100 125 125 100 155 100 c 2
 180 100 l 2
 210 100 235 125 235 155 c 2
 235 550 l 2
 235 578 257 600 285 600 c 0
 313 600 335 578 335 550 c 2
 335 155 l 2
 335 125 360 100 390 100 c 2
 415 100 l 2
 445 100 470 125 470 155 c 2
 470 550 l 2
 470 578 492 600 520 600 c 0
 548 600 570 578 570 550 c 2
 570 155 l 2
 570 69 501 0 415 0 c 2
 390 0 l 2
 349 0 313 15 285 41 c 1
 257 15 221 0 180 0 c 2
 155 0 l 2
 69 0 0 69 0 155 c 2
EndSplineSet
Validated: 1
EndChar

StartChar: X
Encoding: 88 88 33
Width: 800
VWidth: 1024
Flags: W
HStem: 0 100<8.4375 246.973 453.027 691.562> 500 100<8.4375 246.973 453.027 691.562>
VStem: 300 100<153.027 446.973>
LayerCount: 2
Fore
SplineSet
0 50 m 0
 0 78 22 100 50 100 c 2
 180 100 l 2
 246 100 300 154 300 220 c 2
 300 380 l 2
 300 446 246 500 180 500 c 2
 50 500 l 2
 22 500 0 522 0 550 c 0
 0 578 22 600 50 600 c 2
 180 600 l 2
 248 600 310 568 350 519 c 1
 390 568 452 600 520 600 c 2
 650 600 l 2
 678 600 700 578 700 550 c 0
 700 522 678 500 650 500 c 2
 520 500 l 2
 454 500 400 446 400 380 c 2
 400 220 l 2
 400 154 454 100 520 100 c 2
 650 100 l 2
 678 100 700 78 700 50 c 0
 700 22 678 0 650 0 c 2
 520 0 l 2
 452 0 390 32 350 81 c 1
 310 32 248 -0 180 0 c 2
 50 0 l 2
 22 0 0 22 0 50 c 0
EndSplineSet
Validated: 1
EndChar

StartChar: Y
Encoding: 89 89 34
Width: 700
VWidth: 1024
Flags: W
HStem: 0 21G<286 314> 205 100<154.765 250 350 445.235> 580 20G<36 64 536 564>
VStem: 0 100<359.765 591.562> 250 100<8.4375 205> 500 100<359.765 591.562>
CounterMasks: 1 1c
LayerCount: 2
Fore
SplineSet
0 425 m 1
 0 550 l 1
 0 578 22 600 50 600 c 1
 78 600 100 578 100 550 c 1
 100 425 l 1
 100 359 154 305 220 305 c 9
 380 305 l 17
 446 305 500 359 500 425 c 1
 500 550 l 1
 500 578 522 600 550 600 c 1
 578 600 600 578 600 550 c 1
 600 425 l 1
 600 304 501 205 380 205 c 1
 350 205 l 1
 350 50 l 1
 350 22 328 0 300 0 c 1
 272 0 250 22 250 50 c 1
 250 205 l 1
 220 205 l 1
 99 205 0 304 0 425 c 1
EndSplineSet
Validated: 1
EndChar

StartChar: Z
Encoding: 90 90 35
Width: 800
VWidth: 1024
Flags: W
HStem: 0 100<454.765 691.562> 500 100<8.4375 245.235>
VStem: 300 100<154.765 445.235>
LayerCount: 2
Fore
SplineSet
0 550 m 1
 0 578 22 600 50 600 c 1
 180 600 l 1
 301 600 400 501 400 380 c 1
 400 220 l 1
 400 154 454 100 520 100 c 1
 650 100 l 1
 678 100 700 78 700 50 c 1
 700 22 678 0 650 0 c 1
 520 0 l 1
 399 0 300 99 300 220 c 1
 300 380 l 1
 300 446 246 500 180 500 c 1
 50 500 l 1
 22 500 0 522 0 550 c 1
EndSplineSet
Validated: 1
EndChar

StartChar: a
Encoding: 97 97 36
Width: 700
VWidth: 1024
Flags: W
HStem: 0 100<100 500> 500 100<154.765 445.235>
VStem: 0 100<100 445.235> 500 100<100 445.235>
LayerCount: 2
Fore
SplineSet
100 100 m 1
 500 100 l 1
 500 380 l 1
 500 446 446 500 380 500 c 9
 220 500 l 17
 154 500 100 446 100 380 c 1
 100 100 l 1
0 50 m 1
 0 380 l 1
 0 501 99 600 220 600 c 9
 380 600 l 17
 501 600 600 501 600 380 c 1
 600 50 l 1
 600 22 578 0 550 0 c 1
 50 0 l 1
 22 0 0 22 0 50 c 1
EndSplineSet
Validated: 1
EndChar

StartChar: b
Encoding: 98 98 37
Width: 670
VWidth: 1024
Flags: W
HStem: 0 100<100 457.573> 250 100<100 458.153> 500 100<154.765 457.573>
VStem: 0 100<100 250 350 445.235> 470 100<112.427 237.127 362.873 487.573>
LayerCount: 2
Fore
SplineSet
0 50 m 1
 0 380 l 1
 0 501 99 600 220 600 c 1
 415 600 l 2
 501 600 570 531 570 445 c 2
 570 405 l 2
 570 364 555 328 529 300 c 1
 555 272 570 236 570 195 c 2
 570 155 l 2
 570 69 501 0 415 0 c 2
 50 0 l 1
 22 0 0 22 0 50 c 1
100 350 m 1
 415 350 l 2
 445 350 470 375 470 405 c 2
 470 445 l 2
 470 475 445 500 415 500 c 2
 220 500 l 1
 154 500 100 446 100 380 c 1
 100 350 l 1
100 100 m 1
 415 100 l 2
 445 100 470 125 470 155 c 2
 470 195 l 2
 470 225 445 250 415 250 c 2
 100 250 l 1
 100 100 l 1
EndSplineSet
Validated: 1
EndChar

StartChar: c
Encoding: 99 99 38
Width: 700
VWidth: 1024
Flags: W
HStem: 0 100<154.765 591.562> 500 100<154.765 591.562>
VStem: 0 100<154.765 445.235>
LayerCount: 2
Fore
SplineSet
0 220 m 9
 0 380 l 17
 0 501 99 600 220 600 c 1
 550 600 l 1
 578 600 600 578 600 550 c 1
 600 522 578 500 550 500 c 1
 220 500 l 1
 154 500 100 446 100 380 c 9
 100 220 l 17
 100 154 154 100 220 100 c 1
 550 100 l 1
 578 100 600 78 600 50 c 1
 600 22 578 0 550 0 c 1
 220 0 l 1
 99 0 0 99 0 220 c 9
EndSplineSet
Validated: 1
EndChar

StartChar: d
Encoding: 100 100 39
Width: 700
VWidth: 1024
Flags: W
HStem: 0 100<100 445.235> 500 100<100 445.235>
VStem: 0 100<100 500> 500 100<154.765 445.235>
LayerCount: 2
Fore
SplineSet
100 100 m 1
 380 100 l 1
 446 100 500 154 500 220 c 9
 500 380 l 17
 500 446 446 500 380 500 c 1
 100 500 l 1
 100 100 l 1
0 50 m 1
 0 550 l 1
 0 578 22 600 50 600 c 1
 380 600 l 1
 501 600 600 501 600 380 c 9
 600 220 l 17
 600 99 501 0 380 0 c 1
 50 0 l 1
 22 0 0 22 0 50 c 1
EndSplineSet
Validated: 1
EndChar

StartChar: e
Encoding: 101 101 40
Width: 680
VWidth: 1024
Flags: W
HStem: 0 100<154.765 571.562> 250 100<100 467.573> 500 100<154.765 467.573>
VStem: 0 100<154.765 250 350 445.235> 480 100<362.427 487.573>
LayerCount: 2
Fore
SplineSet
0 220 m 9
 0 380 l 17
 0 501 99 600 220 600 c 1
 425 600 l 1
 511 600 580 531 580 445 c 9
 580 405 l 17
 580 319 511 250 425 250 c 9
 100 250 l 17
 100 220 l 1
 100 154 154 100 220 100 c 1
 530 100 l 1
 558 100 580 78 580 50 c 1
 580 22 558 0 530 0 c 1
 220 0 l 1
 99 0 0 99 0 220 c 9
100 350 m 9
 425 350 l 17
 455 350 480 375 480 405 c 9
 480 445 l 17
 480 475 455 500 425 500 c 1
 220 500 l 1
 154 500 100 446 100 380 c 1
 100 350 l 9
EndSplineSet
Validated: 1
EndChar

StartChar: f
Encoding: 102 102 41
Width: 530
VWidth: 1024
Flags: W
HStem: 0 21G<36 64> 0 21G<36 64> 250 100<100 401.562> 500 100<154.765 421.562>
VStem: 0 100<8.4375 250 350 445.235>
LayerCount: 2
Fore
SplineSet
0 50 m 1xb8
 0 380 l 1
 0 501 99 600 220 600 c 1
 380 600 l 1
 408 600 430 578 430 550 c 1
 430 522 408 500 380 500 c 1
 220 500 l 1
 154 500 100 446 100 380 c 1
 100 350 l 1
 360 350 l 1
 388 350 410 328 410 300 c 1
 410 272 388 250 360 250 c 1
 100 250 l 1
 100 50 l 1
 100 22 78 0 50 0 c 1
 22 0 0 22 0 50 c 1xb8
EndSplineSet
Validated: 1
EndChar

StartChar: g
Encoding: 103 103 42
Width: 680
VWidth: 1024
Flags: W
HStem: 0 100<154.765 467.573> 250 100<223.438 467.573> 500 100<154.765 571.562>
VStem: 0 100<154.765 445.235> 480 100<112.427 237.573>
LayerCount: 2
Fore
SplineSet
0 220 m 9
 0 380 l 17
 0 501 99 600 220 600 c 1
 530 600 l 1
 558 600 580 578 580 550 c 1
 580 522 558 500 530 500 c 1
 220 500 l 1
 154 500 100 446 100 380 c 1
 100 220 l 1
 100 154 154 100 220 100 c 1
 425 100 l 1
 455 100 480 125 480 155 c 9
 480 195 l 17
 480 225 455 250 425 250 c 1
 265 250 l 1
 237 250 215 272 215 300 c 1
 215 328 237 350 265 350 c 1
 425 350 l 1
 511 350 580 281 580 195 c 9
 580 155 l 17
 580 69 511 0 425 0 c 1
 220 0 l 1
 99 0 0 99 0 220 c 9
EndSplineSet
Validated: 1
EndChar

StartChar: h
Encoding: 104 104 43
Width: 620
VWidth: 1024
Flags: W
HStem: 0 21G<36 64 456 484> 0 21G<36 64 456 484> 270 100<100 365.235> 580 20G<36 64> 580 20G<36 64>
VStem: 0 100<8.4375 270 370 591.562> 420 100<8.4375 215.235>
LayerCount: 2
Fore
SplineSet
0 50 m 1xb6
 0 550 l 1
 0 578 22 600 50 600 c 1
 78 600 100 578 100 550 c 1
 100 370 l 1
 300 370 l 1
 421 370 520 271 520 150 c 1
 520 50 l 1
 520 22 498 0 470 0 c 1
 442 0 420 22 420 50 c 1
 420 150 l 1
 420 216 366 270 300 270 c 1
 100 270 l 1
 100 50 l 1
 100 22 78 0 50 0 c 1
 22 0 0 22 0 50 c 1xb6
EndSplineSet
Validated: 1
EndChar

StartChar: i
Encoding: 105 105 44
Width: 200
VWidth: 1024
Flags: W
HStem: 0 21G<36 64> 580 20G<36 64>
VStem: 0 100<8.4375 591.562>
LayerCount: 2
Fore
SplineSet
0 50 m 1
 0 550 l 1
 0 578 22 600 50 600 c 1
 78 600 100 578 100 550 c 1
 100 50 l 1
 100 22 78 0 50 0 c 1
 22 0 0 22 0 50 c 1
EndSplineSet
Validated: 1
EndChar

StartChar: j
Encoding: 106 106 45
Width: 640
VWidth: 1024
Flags: W
HStem: 0 100<8.4375 385.235> 580 20G<476 504>
VStem: 440 100<154.765 591.562>
LayerCount: 2
Fore
SplineSet
0 50 m 1
 0 78 22 100 50 100 c 1
 320 100 l 1
 386 100 440 154 440 220 c 1
 440 550 l 1
 440 578 462 600 490 600 c 1
 518 600 540 578 540 550 c 1
 540 220 l 1
 540 99 441 0 320 0 c 1
 50 0 l 1
 22 0 0 22 0 50 c 1
EndSplineSet
Validated: 1
EndChar

StartChar: k
Encoding: 107 107 46
Width: 620
VWidth: 1024
Flags: W
HStem: 0 21G<36 64 456 484> 270 100<100 240> 500 100<394.765 501.562>
VStem: 0 100<8.4375 270 370 591.562> 240 100<370 445.235> 420 100<8.4375 216.973>
LayerCount: 2
Fore
SplineSet
0 50 m 2
 0 550 l 2
 0 578 22 600 50 600 c 0
 78 600 100 578 100 550 c 2
 100 370 l 1
 240 370 l 1
 240 380 l 2
 240 501 339 600 460 600 c 0
 488 600 510 578 510 550 c 0
 510 522 488 500 460 500 c 0
 394 500 340 446 340 380 c 2
 340 366 l 1
 442 347 520 257 520 150 c 2
 520 50 l 2
 520 22 498 0 470 0 c 0
 442 0 420 22 420 50 c 2
 420 150 l 2
 420 216 366 270 300 270 c 2
 100 270 l 1
 100 50 l 2
 100 22 78 0 50 0 c 0
 22 0 0 22 0 50 c 2
EndSplineSet
Validated: 1
EndChar

StartChar: l
Encoding: 108 108 47
Width: 640
VWidth: 1024
Flags: W
HStem: 0 100<154.765 531.562> 580 20G<36 64>
VStem: 0 100<154.765 591.562>
LayerCount: 2
Fore
SplineSet
0 220 m 1
 0 550 l 1
 0 578 22 600 50 600 c 1
 78 600 100 578 100 550 c 1
 100 220 l 1
 100 154 154 100 220 100 c 1
 490 100 l 1
 518 100 540 78 540 50 c 1
 540 22 518 0 490 0 c 1
 220 0 l 1
 99 0 0 99 0 220 c 1
EndSplineSet
Validated: 1
EndChar

StartChar: m
Encoding: 109 109 48
Width: 670
VWidth: 1024
Flags: W
HStem: 0 21G<36 64 271 299 506 534> 500 100<112.427 222.127 347.873 457.573>
VStem: 0 100<8.4375 487.573> 235 100<8.4375 488.153> 470 100<8.4375 487.573>
LayerCount: 2
Fore
SplineSet
0 50 m 2
 0 445 l 2
 0 531 69 600 155 600 c 2
 180 600 l 2
 221 600 257 585 285 559 c 1
 313 585 349 600 390 600 c 2
 415 600 l 2
 501 600 570 531 570 445 c 2
 570 50 l 2
 570 22 548 0 520 0 c 0
 492 0 470 22 470 50 c 2
 470 445 l 2
 470 475 445 500 415 500 c 2
 390 500 l 2
 360 500 335 475 335 445 c 2
 335 50 l 2
 335 22 313 0 285 0 c 0
 257 0 235 22 235 50 c 2
 235 445 l 2
 235 475 210 500 180 500 c 2
 155 500 l 2
 125 500 100 475 100 445 c 2
 100 50 l 2
 100 22 78 0 50 0 c 0
 22 0 0 22 0 50 c 2
EndSplineSet
Validated: 1
EndChar

StartChar: n
Encoding: 110 110 49
Width: 700
VWidth: 1024
Flags: W
HStem: 0 21G<36 64 536 564> 500 100<154.765 445.235>
VStem: 0 100<8.4375 445.235> 500 100<8.4375 445.235>
LayerCount: 2
Fore
SplineSet
0 50 m 1
 0 380 l 1
 0 501 99 600 220 600 c 9
 380 600 l 17
 501 600 600 501 600 380 c 1
 600 50 l 1
 600 22 578 0 550 0 c 1
 522 0 500 22 500 50 c 1
 500 380 l 1
 500 446 446 500 380 500 c 9
 220 500 l 17
 154 500 100 446 100 380 c 1
 100 50 l 1
 100 22 78 0 50 0 c 1
 22 0 0 22 0 50 c 1
EndSplineSet
Validated: 1
EndChar

StartChar: o
Encoding: 111 111 50
Width: 700
VWidth: 1024
Flags: W
HStem: 0 100<154.765 445.235> 500 100<154.765 445.235>
VStem: 0 100<154.765 445.235> 500 100<154.765 445.235>
LayerCount: 2
Fore
SplineSet
100 220 m 17
 100 154 154 100 220 100 c 1
 380 100 l 1
 446 100 500 154 500 220 c 9
 500 380 l 17
 500 446 446 500 380 500 c 1
 220 500 l 1
 154 500 100 446 100 380 c 9
 100 220 l 17
0 220 m 9
 0 380 l 17
 0 501 99 600 220 600 c 1
 380 600 l 1
 501 600 600 501 600 380 c 9
 600 220 l 17
 600 99 501 0 380 0 c 1
 220 0 l 1
 99 0 0 99 0 220 c 9
EndSplineSet
Validated: 1
EndChar

StartChar: p
Encoding: 112 112 51
Width: 680
VWidth: 1024
Flags: W
HStem: 0 21G<36 64> 250 100<100 467.573> 500 100<154.765 467.573>
VStem: 0 100<8.4375 250 350 445.235> 480 100<362.427 487.573>
LayerCount: 2
Fore
SplineSet
0 50 m 1
 0 380 l 1
 0 501 99 600 220 600 c 1
 425 600 l 1
 511 600 580 531 580 445 c 9
 580 405 l 17
 580 319 511 250 425 250 c 9
 100 250 l 17
 100 50 l 1
 100 22 78 0 50 0 c 1
 22 0 0 22 0 50 c 1
100 350 m 9
 425 350 l 17
 455 350 480 375 480 405 c 9
 480 445 l 17
 480 475 455 500 425 500 c 1
 220 500 l 1
 154 500 100 446 100 380 c 1
 100 350 l 9
EndSplineSet
Validated: 1
EndChar

StartChar: q
Encoding: 113 113 52
Width: 740
VWidth: 1024
Flags: W
HStem: 0 100<154.765 408.998> 10 101<571 630.883> 500 100<154.765 445.235>
VStem: 0 100<154.765 445.235> 370 100<168.852 271.562> 500 100<168.402 445.235>
LayerCount: 2
Fore
SplineSet
0 220 m 2xbc
 0 380 l 2
 0 501 99 600 220 600 c 2
 380 600 l 2
 501 600 600 501 600 380 c 2
 600 220 l 2
 600 181 590 144 571 111 c 1
 577 111 584 110 590 110 c 0
 618 110 640 88 640 60 c 0
 640 32 618 10 590 10 c 0x7c
 556 10 523 18 494 32 c 1
 461 12 422 0 380 0 c 2
 220 0 l 2
 99 0 0 99 0 220 c 2xbc
100 220 m 2
 100 154 154 100 220 100 c 2
 380 100 l 2xbc
 390 100 400 101 410 104 c 1
 385 140 370 183 370 230 c 0
 370 258 392 280 420 280 c 0
 448 280 470 258 470 230 c 0
 470 207 477 186 488 167 c 1
 496 183 500 201 500 220 c 2
 500 380 l 2
 500 446 446 500 380 500 c 2
 220 500 l 2
 154 500 100 446 100 380 c 2
 100 220 l 2
EndSplineSet
Validated: 1
EndChar

StartChar: r
Encoding: 114 114 53
Width: 590
VWidth: 1024
Flags: W
HStem: 0 21G<36 64> 0 21G<36 64> 500 100<154.765 481.562>
VStem: 0 100<8.4375 445.235>
LayerCount: 2
Fore
SplineSet
0 50 m 1xb0
 0 380 l 1
 0 501 99 600 220 600 c 1
 440 600 l 1
 468 600 490 578 490 550 c 1
 490 522 468 500 440 500 c 1
 220 500 l 1
 154 500 100 446 100 380 c 1
 100 50 l 1
 100 22 78 0 50 0 c 1
 22 0 0 22 0 50 c 1xb0
EndSplineSet
Validated: 1
EndChar

StartChar: s
Encoding: 115 115 54
Width: 670
VWidth: 1024
Flags: W
HStem: 0 100<18.4375 457.573> 250 100<112.427 457.573> 500 100<112.427 551.562>
VStem: 0 100<362.427 487.573> 470 100<112.427 237.573>
LayerCount: 2
Fore
SplineSet
10 50 m 1
 10 78 32 100 60 100 c 9
 415 100 l 17
 445 100 470 125 470 155 c 9
 470 195 l 17
 470 225 445 250 415 250 c 9
 155 250 l 17
 69 250 0 319 0 405 c 9
 0 445 l 17
 0 531 69 600 155 600 c 9
 510 600 l 17
 538 600 560 578 560 550 c 1
 560 522 538 500 510 500 c 9
 155 500 l 17
 125 500 100 475 100 445 c 9
 100 405 l 17
 100 375 125 350 155 350 c 9
 415 350 l 17
 501 350 570 281 570 195 c 9
 570 155 l 17
 570 69 501 0 415 0 c 9
 60 0 l 17
 32 0 10 22 10 50 c 1
EndSplineSet
Validated: 1
EndChar

StartChar: t
Encoding: 116 116 55
Width: 640
VWidth: 1024
Flags: W
HStem: 0 100<154.765 531.562> 250 100<100 531.562> 580 20G<36 64>
VStem: 0 100<154.765 250 350 591.562>
LayerCount: 2
Fore
SplineSet
0 220 m 1
 0 550 l 1
 0 578 22 600 50 600 c 1
 78 600 100 578 100 550 c 1
 100 350 l 1
 490 350 l 1
 518 350 540 328 540 300 c 1
 540 272 518 250 490 250 c 1
 100 250 l 1
 100 220 l 1
 100 154 154 100 220 100 c 1
 490 100 l 1
 518 100 540 78 540 50 c 1
 540 22 518 0 490 0 c 1
 220 0 l 1
 99 0 0 99 0 220 c 1
EndSplineSet
Validated: 1
EndChar

StartChar: u
Encoding: 117 117 56
Width: 700
VWidth: 1024
Flags: W
HStem: 0 100<154.765 445.235> 500 100<100 500>
VStem: 0 100<154.765 500> 500 100<154.765 500>
LayerCount: 2
Fore
SplineSet
100 220 m 1
 100 154 154 100 220 100 c 9
 380 100 l 17
 446 100 500 154 500 220 c 1
 500 500 l 1
 100 500 l 1
 100 220 l 1
0 220 m 1
 0 550 l 1
 0 578 22 600 50 600 c 1
 550 600 l 1
 578 600 600 578 600 550 c 1
 600 220 l 1
 600 99 501 0 380 0 c 9
 220 0 l 17
 99 0 0 99 0 220 c 1
EndSplineSet
Validated: 1
EndChar

StartChar: v
Encoding: 118 118 57
Width: 700
VWidth: 1024
Flags: W
HStem: 0 100<154.765 445.235> 580 20G<36 64 536 564>
VStem: 0 100<154.765 591.562> 500 100<154.765 591.562>
LayerCount: 2
Fore
SplineSet
0 220 m 1
 0 550 l 1
 0 578 22 600 50 600 c 1
 78 600 100 578 100 550 c 1
 100 220 l 1
 100 154 154 100 220 100 c 9
 380 100 l 17
 446 100 500 154 500 220 c 1
 500 550 l 1
 500 578 522 600 550 600 c 1
 578 600 600 578 600 550 c 1
 600 220 l 1
 600 99 501 0 380 0 c 9
 220 0 l 17
 99 0 0 99 0 220 c 1
EndSplineSet
Validated: 1
EndChar

StartChar: w
Encoding: 119 119 58
Width: 670
VWidth: 1024
Flags: W
HStem: 0 100<112.427 222.127 347.873 457.573> 580 20G<36 64 271 299 506 534>
VStem: 0 100<112.427 591.562> 235 100<111.847 591.562> 470 100<112.427 591.562>
LayerCount: 2
Fore
SplineSet
0 155 m 2
 0 550 l 2
 0 578 22 600 50 600 c 0
 78 600 100 578 100 550 c 2
 100 155 l 2
 100 125 125 100 155 100 c 2
 180 100 l 2
 210 100 235 125 235 155 c 2
 235 550 l 2
 235 578 257 600 285 600 c 0
 313 600 335 578 335 550 c 2
 335 155 l 2
 335 125 360 100 390 100 c 2
 415 100 l 2
 445 100 470 125 470 155 c 2
 470 550 l 2
 470 578 492 600 520 600 c 0
 548 600 570 578 570 550 c 2
 570 155 l 2
 570 69 501 0 415 0 c 2
 390 0 l 2
 349 0 313 15 285 41 c 1
 257 15 221 0 180 0 c 2
 155 0 l 2
 69 0 0 69 0 155 c 2
EndSplineSet
Validated: 1
EndChar

StartChar: x
Encoding: 120 120 59
Width: 800
VWidth: 1024
Flags: W
HStem: 0 100<8.4375 246.973 453.027 691.562> 500 100<8.4375 246.973 453.027 691.562>
VStem: 300 100<153.027 446.973>
LayerCount: 2
Fore
SplineSet
0 50 m 0
 0 78 22 100 50 100 c 2
 180 100 l 2
 246 100 300 154 300 220 c 2
 300 380 l 2
 300 446 246 500 180 500 c 2
 50 500 l 2
 22 500 0 522 0 550 c 0
 0 578 22 600 50 600 c 2
 180 600 l 2
 248 600 310 568 350 519 c 1
 390 568 452 600 520 600 c 2
 650 600 l 2
 678 600 700 578 700 550 c 0
 700 522 678 500 650 500 c 2
 520 500 l 2
 454 500 400 446 400 380 c 2
 400 220 l 2
 400 154 454 100 520 100 c 2
 650 100 l 2
 678 100 700 78 700 50 c 0
 700 22 678 0 650 0 c 2
 520 0 l 2
 452 0 390 32 350 81 c 1
 310 32 248 -0 180 0 c 2
 50 0 l 2
 22 0 0 22 0 50 c 0
EndSplineSet
Validated: 1
EndChar

StartChar: y
Encoding: 121 121 60
Width: 700
VWidth: 1024
Flags: W
HStem: 0 21G<286 314> 205 100<154.765 250 350 445.235> 580 20G<36 64 536 564>
VStem: 0 100<359.765 591.562> 250 100<8.4375 205> 500 100<359.765 591.562>
LayerCount: 2
Fore
SplineSet
0 425 m 1
 0 550 l 1
 0 578 22 600 50 600 c 1
 78 600 100 578 100 550 c 1
 100 425 l 1
 100 359 154 305 220 305 c 9
 380 305 l 17
 446 305 500 359 500 425 c 1
 500 550 l 1
 500 578 522 600 550 600 c 1
 578 600 600 578 600 550 c 1
 600 425 l 1
 600 304 501 205 380 205 c 1
 350 205 l 1
 350 50 l 1
 350 22 328 0 300 0 c 1
 272 0 250 22 250 50 c 1
 250 205 l 1
 220 205 l 1
 99 205 0 304 0 425 c 1
EndSplineSet
Validated: 1
EndChar

StartChar: z
Encoding: 122 122 61
Width: 800
VWidth: 1024
Flags: W
HStem: 0 100<454.765 691.562> 500 100<8.4375 245.235>
VStem: 300 100<154.765 445.235>
LayerCount: 2
Fore
SplineSet
0 550 m 1
 0 578 22 600 50 600 c 1
 180 600 l 1
 301 600 400 501 400 380 c 1
 400 220 l 1
 400 154 454 100 520 100 c 1
 650 100 l 1
 678 100 700 78 700 50 c 1
 700 22 678 0 650 0 c 1
 520 0 l 1
 399 0 300 99 300 220 c 1
 300 380 l 1
 300 446 246 500 180 500 c 1
 50 500 l 1
 22 500 0 522 0 550 c 1
EndSplineSet
Validated: 1
EndChar

StartChar: copyright
Encoding: 169 169 62
Width: 1373
VWidth: 1024
Flags: W
HStem: 0 190<844 976> 0 173<190 410> 0 34<617.316 651.684 1238.32 1272.68> 410 190<844 976> 485 115<202.5 397.5>
VStem: 0 190<173 305> 410 190<173 305> 617 35<0 33.8747> 704 140<190 410> 1153 115<202.5 397.5> 1238 35<0 33.8747>
LayerCount: 2
Fore
SplineSet
1238 4 m 9x27a0
 1238 19 l 17
 1238 27 1245 34 1253 34 c 9
 1258 34 l 17
 1266 34 1273 27 1273 19 c 9
 1273 4 l 17
 1273 2 1271 0 1269 0 c 9
 1242 0 l 17
 1240 0 1238 2 1238 4 c 9x27a0
617 4 m 9
 617 19 l 17
 617 27 624 34 632 34 c 9
 637 34 l 17
 645 34 652 27 652 19 c 9
 652 4 l 17
 652 2 650 0 648 0 c 9
 621 0 l 17
 619 0 617 2 617 4 c 9
704 75 m 9
 704 525 l 17
 704 566 738 600 779 600 c 9
 1008 600 l 17
 1152 600 1268 484 1268 340 c 9
 1268 260 l 17x2fc0
 1268 116 1152 0 1008 0 c 9
 779 0 l 17
 738 0 704 34 704 75 c 9
844 190 m 25x97c0
 976 190 l 25
 976 124 l 25
 1153 300 l 25
 976 476 l 25
 976 410 l 25
 844 410 l 25
 844 190 l 25x97c0
0 75 m 9
 0 340 l 17
 0 484 116 600 260 600 c 9
 340 600 l 17
 484 600 600 484 600 340 c 9
 600 75 l 17
 600 34 566 0 525 0 c 9
 75 0 l 17x2f80
 34 0 0 34 0 75 c 9
190 173 m 25x4f80
 410 173 l 25
 410 305 l 25
 476 305 l 25
 300 485 l 25
 124 305 l 25
 190 305 l 25
 190 173 l 25x4f80
EndSplineSet
Validated: 1
EndChar

StartChar: Agrave
Encoding: 192 192 65
Width: 700
VWidth: 1024
Flags: W
HStem: 0 100<100 500> 500 100<154.765 445.235>
VStem: 0 100<100 445.235> 500 100<100 445.235>
LayerCount: 2
Fore
SplineSet
100 100 m 1
 500 100 l 1
 500 380 l 1
 500 446 446 500 380 500 c 9
 220 500 l 17
 154 500 100 446 100 380 c 1
 100 100 l 1
0 50 m 1
 0 380 l 1
 0 501 99 600 220 600 c 9
 380 600 l 17
 501 600 600 501 600 380 c 1
 600 50 l 1
 600 22 578 0 550 0 c 1
 50 0 l 1
 22 0 0 22 0 50 c 1
EndSplineSet
Validated: 1
EndChar

StartChar: Aacute
Encoding: 193 193 66
Width: 700
VWidth: 1024
Flags: W
HStem: 0 100<100 500> 500 100<154.765 445.235>
VStem: 0 100<100 445.235> 500 100<100 445.235>
LayerCount: 2
Fore
SplineSet
100 100 m 1
 500 100 l 1
 500 380 l 1
 500 446 446 500 380 500 c 9
 220 500 l 17
 154 500 100 446 100 380 c 1
 100 100 l 1
0 50 m 1
 0 380 l 1
 0 501 99 600 220 600 c 9
 380 600 l 17
 501 600 600 501 600 380 c 1
 600 50 l 1
 600 22 578 0 550 0 c 1
 50 0 l 1
 22 0 0 22 0 50 c 1
EndSplineSet
Validated: 1
EndChar

StartChar: Acircumflex
Encoding: 194 194 67
Width: 700
VWidth: 1024
Flags: W
HStem: 0 100<100 500> 500 100<154.765 445.235>
VStem: 0 100<100 445.235> 500 100<100 445.235>
LayerCount: 2
Fore
SplineSet
100 100 m 1
 500 100 l 1
 500 380 l 1
 500 446 446 500 380 500 c 9
 220 500 l 17
 154 500 100 446 100 380 c 1
 100 100 l 1
0 50 m 1
 0 380 l 1
 0 501 99 600 220 600 c 9
 380 600 l 17
 501 600 600 501 600 380 c 1
 600 50 l 1
 600 22 578 0 550 0 c 1
 50 0 l 1
 22 0 0 22 0 50 c 1
EndSplineSet
Validated: 1
EndChar

StartChar: Atilde
Encoding: 195 195 68
Width: 700
VWidth: 1024
Flags: W
HStem: 0 100<100 500> 500 100<154.765 445.235>
VStem: 0 100<100 445.235> 500 100<100 445.235>
LayerCount: 2
Fore
SplineSet
100 100 m 1
 500 100 l 1
 500 380 l 1
 500 446 446 500 380 500 c 9
 220 500 l 17
 154 500 100 446 100 380 c 1
 100 100 l 1
0 50 m 1
 0 380 l 1
 0 501 99 600 220 600 c 9
 380 600 l 17
 501 600 600 501 600 380 c 1
 600 50 l 1
 600 22 578 0 550 0 c 1
 50 0 l 1
 22 0 0 22 0 50 c 1
EndSplineSet
Validated: 1
EndChar

StartChar: Adieresis
Encoding: 196 196 69
Width: 700
VWidth: 1024
Flags: W
HStem: 0 100<100 500> 500 100<154.765 445.235>
VStem: 0 100<100 445.235> 500 100<100 445.235>
LayerCount: 2
Fore
SplineSet
100 100 m 1
 500 100 l 1
 500 380 l 1
 500 446 446 500 380 500 c 9
 220 500 l 17
 154 500 100 446 100 380 c 1
 100 100 l 1
0 50 m 1
 0 380 l 1
 0 501 99 600 220 600 c 9
 380 600 l 17
 501 600 600 501 600 380 c 1
 600 50 l 1
 600 22 578 0 550 0 c 1
 50 0 l 1
 22 0 0 22 0 50 c 1
EndSplineSet
Validated: 1
EndChar

StartChar: Aring
Encoding: 197 197 70
Width: 700
VWidth: 1024
Flags: W
HStem: 0 100<100 500> 500 100<154.765 445.235>
VStem: 0 100<100 445.235> 500 100<100 445.235>
LayerCount: 2
Fore
SplineSet
100 100 m 1
 500 100 l 1
 500 380 l 1
 500 446 446 500 380 500 c 9
 220 500 l 17
 154 500 100 446 100 380 c 1
 100 100 l 1
0 50 m 1
 0 380 l 1
 0 501 99 600 220 600 c 9
 380 600 l 17
 501 600 600 501 600 380 c 1
 600 50 l 1
 600 22 578 0 550 0 c 1
 50 0 l 1
 22 0 0 22 0 50 c 1
EndSplineSet
Validated: 1
EndChar

StartChar: Ccedilla
Encoding: 199 199 71
Width: 700
VWidth: 1024
Flags: W
HStem: 0 100<154.765 591.562> 500 100<154.765 591.562>
VStem: 0 100<154.765 445.235>
LayerCount: 2
Fore
SplineSet
0 220 m 9
 0 380 l 17
 0 501 99 600 220 600 c 1
 550 600 l 1
 578 600 600 578 600 550 c 1
 600 522 578 500 550 500 c 1
 220 500 l 1
 154 500 100 446 100 380 c 9
 100 220 l 17
 100 154 154 100 220 100 c 1
 550 100 l 1
 578 100 600 78 600 50 c 1
 600 22 578 0 550 0 c 1
 220 0 l 1
 99 0 0 99 0 220 c 9
EndSplineSet
Validated: 1
EndChar

StartChar: Egrave
Encoding: 200 200 72
Width: 680
VWidth: 1024
Flags: W
HStem: 0 100<154.765 571.562> 250 100<100 467.573> 500 100<154.765 467.573>
VStem: 0 100<154.765 250 350 445.235> 480 100<362.427 487.573>
LayerCount: 2
Fore
SplineSet
0 220 m 9
 0 380 l 17
 0 501 99 600 220 600 c 1
 425 600 l 1
 511 600 580 531 580 445 c 9
 580 405 l 17
 580 319 511 250 425 250 c 9
 100 250 l 17
 100 220 l 1
 100 154 154 100 220 100 c 1
 530 100 l 1
 558 100 580 78 580 50 c 1
 580 22 558 0 530 0 c 1
 220 0 l 1
 99 0 0 99 0 220 c 9
100 350 m 9
 425 350 l 17
 455 350 480 375 480 405 c 9
 480 445 l 17
 480 475 455 500 425 500 c 1
 220 500 l 1
 154 500 100 446 100 380 c 1
 100 350 l 9
EndSplineSet
Validated: 1
EndChar

StartChar: Eacute
Encoding: 201 201 73
Width: 680
VWidth: 1024
Flags: W
HStem: 0 100<154.765 571.562> 250 100<100 467.573> 500 100<154.765 467.573>
VStem: 0 100<154.765 250 350 445.235> 480 100<362.427 487.573>
LayerCount: 2
Fore
SplineSet
0 220 m 9
 0 380 l 17
 0 501 99 600 220 600 c 1
 425 600 l 1
 511 600 580 531 580 445 c 9
 580 405 l 17
 580 319 511 250 425 250 c 9
 100 250 l 17
 100 220 l 1
 100 154 154 100 220 100 c 1
 530 100 l 1
 558 100 580 78 580 50 c 1
 580 22 558 0 530 0 c 1
 220 0 l 1
 99 0 0 99 0 220 c 9
100 350 m 9
 425 350 l 17
 455 350 480 375 480 405 c 9
 480 445 l 17
 480 475 455 500 425 500 c 1
 220 500 l 1
 154 500 100 446 100 380 c 1
 100 350 l 9
EndSplineSet
Validated: 1
EndChar

StartChar: Ecircumflex
Encoding: 202 202 74
Width: 680
VWidth: 1024
Flags: W
HStem: 0 100<154.765 571.562> 250 100<100 467.573> 500 100<154.765 467.573>
VStem: 0 100<154.765 250 350 445.235> 480 100<362.427 487.573>
LayerCount: 2
Fore
SplineSet
0 220 m 9
 0 380 l 17
 0 501 99 600 220 600 c 1
 425 600 l 1
 511 600 580 531 580 445 c 9
 580 405 l 17
 580 319 511 250 425 250 c 9
 100 250 l 17
 100 220 l 1
 100 154 154 100 220 100 c 1
 530 100 l 1
 558 100 580 78 580 50 c 1
 580 22 558 0 530 0 c 1
 220 0 l 1
 99 0 0 99 0 220 c 9
100 350 m 9
 425 350 l 17
 455 350 480 375 480 405 c 9
 480 445 l 17
 480 475 455 500 425 500 c 1
 220 500 l 1
 154 500 100 446 100 380 c 1
 100 350 l 9
EndSplineSet
Validated: 1
EndChar

StartChar: Edieresis
Encoding: 203 203 75
Width: 680
VWidth: 1024
Flags: W
HStem: 0 100<154.765 571.562> 250 100<100 467.573> 500 100<154.765 467.573>
VStem: 0 100<154.765 250 350 445.235> 480 100<362.427 487.573>
LayerCount: 2
Fore
SplineSet
0 220 m 9
 0 380 l 17
 0 501 99 600 220 600 c 1
 425 600 l 1
 511 600 580 531 580 445 c 9
 580 405 l 17
 580 319 511 250 425 250 c 9
 100 250 l 17
 100 220 l 1
 100 154 154 100 220 100 c 1
 530 100 l 1
 558 100 580 78 580 50 c 1
 580 22 558 0 530 0 c 1
 220 0 l 1
 99 0 0 99 0 220 c 9
100 350 m 9
 425 350 l 17
 455 350 480 375 480 405 c 9
 480 445 l 17
 480 475 455 500 425 500 c 1
 220 500 l 1
 154 500 100 446 100 380 c 1
 100 350 l 9
EndSplineSet
Validated: 1
EndChar

StartChar: Igrave
Encoding: 204 204 76
Width: 200
VWidth: 1024
Flags: W
HStem: 0 21G<36 64> 580 20G<36 64>
VStem: 0 100<8.4375 591.562>
LayerCount: 2
Fore
SplineSet
0 50 m 1
 0 550 l 1
 0 578 22 600 50 600 c 1
 78 600 100 578 100 550 c 1
 100 50 l 1
 100 22 78 0 50 0 c 1
 22 0 0 22 0 50 c 1
EndSplineSet
Validated: 1
EndChar

StartChar: Iacute
Encoding: 205 205 77
Width: 200
VWidth: 1024
Flags: W
HStem: 0 21G<36 64> 580 20G<36 64>
VStem: 0 100<8.4375 591.562>
LayerCount: 2
Fore
SplineSet
0 50 m 1
 0 550 l 1
 0 578 22 600 50 600 c 1
 78 600 100 578 100 550 c 1
 100 50 l 1
 100 22 78 0 50 0 c 1
 22 0 0 22 0 50 c 1
EndSplineSet
Validated: 1
EndChar

StartChar: Icircumflex
Encoding: 206 206 78
Width: 200
VWidth: 1024
Flags: W
HStem: 0 21G<36 64> 580 20G<36 64>
VStem: 0 100<8.4375 591.562>
LayerCount: 2
Fore
SplineSet
0 50 m 1
 0 550 l 1
 0 578 22 600 50 600 c 1
 78 600 100 578 100 550 c 1
 100 50 l 1
 100 22 78 0 50 0 c 1
 22 0 0 22 0 50 c 1
EndSplineSet
Validated: 1
EndChar

StartChar: Idieresis
Encoding: 207 207 79
Width: 200
VWidth: 1024
Flags: W
HStem: 0 21G<36 64> 580 20G<36 64>
VStem: 0 100<8.4375 591.562>
LayerCount: 2
Fore
SplineSet
0 50 m 1
 0 550 l 1
 0 578 22 600 50 600 c 1
 78 600 100 578 100 550 c 1
 100 50 l 1
 100 22 78 0 50 0 c 1
 22 0 0 22 0 50 c 1
EndSplineSet
Validated: 1
EndChar

StartChar: Ntilde
Encoding: 209 209 80
Width: 700
VWidth: 1024
Flags: W
HStem: 0 21G<36 64 536 564> 500 100<154.765 445.235>
VStem: 0 100<8.4375 445.235> 500 100<8.4375 445.235>
LayerCount: 2
Fore
SplineSet
0 50 m 1
 0 380 l 1
 0 501 99 600 220 600 c 9
 380 600 l 17
 501 600 600 501 600 380 c 1
 600 50 l 1
 600 22 578 0 550 0 c 1
 522 0 500 22 500 50 c 1
 500 380 l 1
 500 446 446 500 380 500 c 9
 220 500 l 17
 154 500 100 446 100 380 c 1
 100 50 l 1
 100 22 78 0 50 0 c 1
 22 0 0 22 0 50 c 1
EndSplineSet
Validated: 1
EndChar

StartChar: Ograve
Encoding: 210 210 81
Width: 700
VWidth: 1024
Flags: W
HStem: 0 100<154.765 445.235> 500 100<154.765 445.235>
VStem: 0 100<154.765 445.235> 500 100<154.765 445.235>
LayerCount: 2
Fore
SplineSet
100 220 m 17
 100 154 154 100 220 100 c 1
 380 100 l 1
 446 100 500 154 500 220 c 9
 500 380 l 17
 500 446 446 500 380 500 c 1
 220 500 l 1
 154 500 100 446 100 380 c 9
 100 220 l 17
0 220 m 9
 0 380 l 17
 0 501 99 600 220 600 c 1
 380 600 l 1
 501 600 600 501 600 380 c 9
 600 220 l 17
 600 99 501 0 380 0 c 1
 220 0 l 1
 99 0 0 99 0 220 c 9
EndSplineSet
Validated: 1
EndChar

StartChar: Oacute
Encoding: 211 211 82
Width: 700
VWidth: 1024
Flags: W
HStem: 0 100<154.765 445.235> 500 100<154.765 445.235>
VStem: 0 100<154.765 445.235> 500 100<154.765 445.235>
LayerCount: 2
Fore
SplineSet
100 220 m 17
 100 154 154 100 220 100 c 1
 380 100 l 1
 446 100 500 154 500 220 c 9
 500 380 l 17
 500 446 446 500 380 500 c 1
 220 500 l 1
 154 500 100 446 100 380 c 9
 100 220 l 17
0 220 m 9
 0 380 l 17
 0 501 99 600 220 600 c 1
 380 600 l 1
 501 600 600 501 600 380 c 9
 600 220 l 17
 600 99 501 0 380 0 c 1
 220 0 l 1
 99 0 0 99 0 220 c 9
EndSplineSet
Validated: 1
EndChar

StartChar: Ocircumflex
Encoding: 212 212 83
Width: 700
VWidth: 1024
Flags: W
HStem: 0 100<154.765 445.235> 500 100<154.765 445.235>
VStem: 0 100<154.765 445.235> 500 100<154.765 445.235>
LayerCount: 2
Fore
SplineSet
100 220 m 17
 100 154 154 100 220 100 c 1
 380 100 l 1
 446 100 500 154 500 220 c 9
 500 380 l 17
 500 446 446 500 380 500 c 1
 220 500 l 1
 154 500 100 446 100 380 c 9
 100 220 l 17
0 220 m 9
 0 380 l 17
 0 501 99 600 220 600 c 1
 380 600 l 1
 501 600 600 501 600 380 c 9
 600 220 l 17
 600 99 501 0 380 0 c 1
 220 0 l 1
 99 0 0 99 0 220 c 9
EndSplineSet
Validated: 1
EndChar

StartChar: Otilde
Encoding: 213 213 84
Width: 700
VWidth: 1024
Flags: W
HStem: 0 100<154.765 445.235> 500 100<154.765 445.235>
VStem: 0 100<154.765 445.235> 500 100<154.765 445.235>
LayerCount: 2
Fore
SplineSet
100 220 m 17
 100 154 154 100 220 100 c 1
 380 100 l 1
 446 100 500 154 500 220 c 9
 500 380 l 17
 500 446 446 500 380 500 c 1
 220 500 l 1
 154 500 100 446 100 380 c 9
 100 220 l 17
0 220 m 9
 0 380 l 17
 0 501 99 600 220 600 c 1
 380 600 l 1
 501 600 600 501 600 380 c 9
 600 220 l 17
 600 99 501 0 380 0 c 1
 220 0 l 1
 99 0 0 99 0 220 c 9
EndSplineSet
Validated: 1
EndChar

StartChar: Odieresis
Encoding: 214 214 85
Width: 700
VWidth: 1024
Flags: W
HStem: 0 100<154.765 445.235> 500 100<154.765 445.235>
VStem: 0 100<154.765 445.235> 500 100<154.765 445.235>
LayerCount: 2
Fore
SplineSet
100 220 m 17
 100 154 154 100 220 100 c 1
 380 100 l 1
 446 100 500 154 500 220 c 9
 500 380 l 17
 500 446 446 500 380 500 c 1
 220 500 l 1
 154 500 100 446 100 380 c 9
 100 220 l 17
0 220 m 9
 0 380 l 17
 0 501 99 600 220 600 c 1
 380 600 l 1
 501 600 600 501 600 380 c 9
 600 220 l 17
 600 99 501 0 380 0 c 1
 220 0 l 1
 99 0 0 99 0 220 c 9
EndSplineSet
Validated: 1
EndChar

StartChar: Oslash
Encoding: 216 216 86
Width: 700
VWidth: 1024
Flags: W
HStem: 0 100<154.765 445.235> 500 100<154.765 445.235>
VStem: 0 100<154.765 445.235> 500 100<154.765 445.235>
LayerCount: 2
Fore
SplineSet
100 220 m 17
 100 154 154 100 220 100 c 1
 380 100 l 1
 446 100 500 154 500 220 c 9
 500 380 l 17
 500 446 446 500 380 500 c 1
 220 500 l 1
 154 500 100 446 100 380 c 9
 100 220 l 17
0 220 m 9
 0 380 l 17
 0 501 99 600 220 600 c 1
 380 600 l 1
 501 600 600 501 600 380 c 9
 600 220 l 17
 600 99 501 0 380 0 c 1
 220 0 l 1
 99 0 0 99 0 220 c 9
EndSplineSet
Validated: 1
EndChar

StartChar: Ugrave
Encoding: 217 217 87
Width: 700
VWidth: 1024
Flags: W
HStem: 0 100<154.765 445.235> 500 100<100 500>
VStem: 0 100<154.765 500> 500 100<154.765 500>
LayerCount: 2
Fore
SplineSet
100 220 m 1
 100 154 154 100 220 100 c 9
 380 100 l 17
 446 100 500 154 500 220 c 1
 500 500 l 1
 100 500 l 1
 100 220 l 1
0 220 m 1
 0 550 l 1
 0 578 22 600 50 600 c 1
 550 600 l 1
 578 600 600 578 600 550 c 1
 600 220 l 1
 600 99 501 0 380 0 c 9
 220 0 l 17
 99 0 0 99 0 220 c 1
EndSplineSet
Validated: 1
EndChar

StartChar: Uacute
Encoding: 218 218 88
Width: 700
VWidth: 1024
Flags: W
HStem: 0 100<154.765 445.235> 500 100<100 500>
VStem: 0 100<154.765 500> 500 100<154.765 500>
LayerCount: 2
Fore
SplineSet
100 220 m 1
 100 154 154 100 220 100 c 9
 380 100 l 17
 446 100 500 154 500 220 c 1
 500 500 l 1
 100 500 l 1
 100 220 l 1
0 220 m 1
 0 550 l 1
 0 578 22 600 50 600 c 1
 550 600 l 1
 578 600 600 578 600 550 c 1
 600 220 l 1
 600 99 501 0 380 0 c 9
 220 0 l 17
 99 0 0 99 0 220 c 1
EndSplineSet
Validated: 1
EndChar

StartChar: Ucircumflex
Encoding: 219 219 89
Width: 700
VWidth: 1024
Flags: W
HStem: 0 100<154.765 445.235> 500 100<100 500>
VStem: 0 100<154.765 500> 500 100<154.765 500>
LayerCount: 2
Fore
SplineSet
100 220 m 1
 100 154 154 100 220 100 c 9
 380 100 l 17
 446 100 500 154 500 220 c 1
 500 500 l 1
 100 500 l 1
 100 220 l 1
0 220 m 1
 0 550 l 1
 0 578 22 600 50 600 c 1
 550 600 l 1
 578 600 600 578 600 550 c 1
 600 220 l 1
 600 99 501 0 380 0 c 9
 220 0 l 17
 99 0 0 99 0 220 c 1
EndSplineSet
Validated: 1
EndChar

StartChar: Udieresis
Encoding: 220 220 90
Width: 700
VWidth: 1024
Flags: W
HStem: 0 100<154.765 445.235> 500 100<100 500>
VStem: 0 100<154.765 500> 500 100<154.765 500>
LayerCount: 2
Fore
SplineSet
100 220 m 1
 100 154 154 100 220 100 c 9
 380 100 l 17
 446 100 500 154 500 220 c 1
 500 500 l 1
 100 500 l 1
 100 220 l 1
0 220 m 1
 0 550 l 1
 0 578 22 600 50 600 c 1
 550 600 l 1
 578 600 600 578 600 550 c 1
 600 220 l 1
 600 99 501 0 380 0 c 9
 220 0 l 17
 99 0 0 99 0 220 c 1
EndSplineSet
Validated: 1
EndChar

StartChar: Yacute
Encoding: 221 221 91
Width: 700
VWidth: 1024
Flags: W
HStem: 0 21G<286 314> 205 100<154.765 250 350 445.235> 580 20G<36 64 536 564>
VStem: 0 100<359.765 591.562> 250 100<8.4375 205> 500 100<359.765 591.562>
LayerCount: 2
Fore
SplineSet
0 425 m 1
 0 550 l 1
 0 578 22 600 50 600 c 1
 78 600 100 578 100 550 c 1
 100 425 l 1
 100 359 154 305 220 305 c 9
 380 305 l 17
 446 305 500 359 500 425 c 1
 500 550 l 1
 500 578 522 600 550 600 c 1
 578 600 600 578 600 550 c 1
 600 425 l 1
 600 304 501 205 380 205 c 1
 350 205 l 1
 350 50 l 1
 350 22 328 0 300 0 c 1
 272 0 250 22 250 50 c 1
 250 205 l 1
 220 205 l 1
 99 205 0 304 0 425 c 1
EndSplineSet
Validated: 1
EndChar

StartChar: agrave
Encoding: 224 224 92
Width: 700
VWidth: 1024
Flags: W
HStem: 0 100<100 500> 500 100<154.765 445.235>
VStem: 0 100<100 445.235> 500 100<100 445.235>
LayerCount: 2
Fore
SplineSet
100 100 m 1
 500 100 l 1
 500 380 l 1
 500 446 446 500 380 500 c 9
 220 500 l 17
 154 500 100 446 100 380 c 1
 100 100 l 1
0 50 m 1
 0 380 l 1
 0 501 99 600 220 600 c 9
 380 600 l 17
 501 600 600 501 600 380 c 1
 600 50 l 1
 600 22 578 0 550 0 c 1
 50 0 l 1
 22 0 0 22 0 50 c 1
EndSplineSet
Validated: 1
EndChar

StartChar: aacute
Encoding: 225 225 93
Width: 700
VWidth: 1024
Flags: W
HStem: 0 100<100 500> 500 100<154.765 445.235>
VStem: 0 100<100 445.235> 500 100<100 445.235>
LayerCount: 2
Fore
SplineSet
100 100 m 1
 500 100 l 1
 500 380 l 1
 500 446 446 500 380 500 c 9
 220 500 l 17
 154 500 100 446 100 380 c 1
 100 100 l 1
0 50 m 1
 0 380 l 1
 0 501 99 600 220 600 c 9
 380 600 l 17
 501 600 600 501 600 380 c 1
 600 50 l 1
 600 22 578 0 550 0 c 1
 50 0 l 1
 22 0 0 22 0 50 c 1
EndSplineSet
Validated: 1
EndChar

StartChar: acircumflex
Encoding: 226 226 94
Width: 700
VWidth: 1024
Flags: W
HStem: 0 100<100 500> 500 100<154.765 445.235>
VStem: 0 100<100 445.235> 500 100<100 445.235>
LayerCount: 2
Fore
SplineSet
100 100 m 1
 500 100 l 1
 500 380 l 1
 500 446 446 500 380 500 c 9
 220 500 l 17
 154 500 100 446 100 380 c 1
 100 100 l 1
0 50 m 1
 0 380 l 1
 0 501 99 600 220 600 c 9
 380 600 l 17
 501 600 600 501 600 380 c 1
 600 50 l 1
 600 22 578 0 550 0 c 1
 50 0 l 1
 22 0 0 22 0 50 c 1
EndSplineSet
Validated: 1
EndChar

StartChar: atilde
Encoding: 227 227 95
Width: 700
VWidth: 1024
Flags: W
HStem: 0 100<100 500> 500 100<154.765 445.235>
VStem: 0 100<100 445.235> 500 100<100 445.235>
LayerCount: 2
Fore
SplineSet
100 100 m 1
 500 100 l 1
 500 380 l 1
 500 446 446 500 380 500 c 9
 220 500 l 17
 154 500 100 446 100 380 c 1
 100 100 l 1
0 50 m 1
 0 380 l 1
 0 501 99 600 220 600 c 9
 380 600 l 17
 501 600 600 501 600 380 c 1
 600 50 l 1
 600 22 578 0 550 0 c 1
 50 0 l 1
 22 0 0 22 0 50 c 1
EndSplineSet
Validated: 1
EndChar

StartChar: adieresis
Encoding: 228 228 96
Width: 700
VWidth: 1024
Flags: W
HStem: 0 100<100 500> 500 100<154.765 445.235>
VStem: 0 100<100 445.235> 500 100<100 445.235>
LayerCount: 2
Fore
SplineSet
100 100 m 1
 500 100 l 1
 500 380 l 1
 500 446 446 500 380 500 c 9
 220 500 l 17
 154 500 100 446 100 380 c 1
 100 100 l 1
0 50 m 1
 0 380 l 1
 0 501 99 600 220 600 c 9
 380 600 l 17
 501 600 600 501 600 380 c 1
 600 50 l 1
 600 22 578 0 550 0 c 1
 50 0 l 1
 22 0 0 22 0 50 c 1
EndSplineSet
Validated: 1
EndChar

StartChar: aring
Encoding: 229 229 97
Width: 700
VWidth: 1024
Flags: W
HStem: 0 100<100 500> 500 100<154.765 445.235>
VStem: 0 100<100 445.235> 500 100<100 445.235>
LayerCount: 2
Fore
SplineSet
100 100 m 1
 500 100 l 1
 500 380 l 1
 500 446 446 500 380 500 c 9
 220 500 l 17
 154 500 100 446 100 380 c 1
 100 100 l 1
0 50 m 1
 0 380 l 1
 0 501 99 600 220 600 c 9
 380 600 l 17
 501 600 600 501 600 380 c 1
 600 50 l 1
 600 22 578 0 550 0 c 1
 50 0 l 1
 22 0 0 22 0 50 c 1
EndSplineSet
Validated: 1
EndChar

StartChar: ccedilla
Encoding: 231 231 98
Width: 700
VWidth: 1024
Flags: W
HStem: 0 100<154.765 591.562> 500 100<154.765 591.562>
VStem: 0 100<154.765 445.235>
LayerCount: 2
Fore
SplineSet
0 220 m 9
 0 380 l 17
 0 501 99 600 220 600 c 1
 550 600 l 1
 578 600 600 578 600 550 c 1
 600 522 578 500 550 500 c 1
 220 500 l 1
 154 500 100 446 100 380 c 9
 100 220 l 17
 100 154 154 100 220 100 c 1
 550 100 l 1
 578 100 600 78 600 50 c 1
 600 22 578 0 550 0 c 1
 220 0 l 1
 99 0 0 99 0 220 c 9
EndSplineSet
Validated: 1
EndChar

StartChar: egrave
Encoding: 232 232 99
Width: 680
VWidth: 1024
Flags: W
HStem: 0 100<154.765 571.562> 250 100<100 467.573> 500 100<154.765 467.573>
VStem: 0 100<154.765 250 350 445.235> 480 100<362.427 487.573>
LayerCount: 2
Fore
SplineSet
0 220 m 9
 0 380 l 17
 0 501 99 600 220 600 c 1
 425 600 l 1
 511 600 580 531 580 445 c 9
 580 405 l 17
 580 319 511 250 425 250 c 9
 100 250 l 17
 100 220 l 1
 100 154 154 100 220 100 c 1
 530 100 l 1
 558 100 580 78 580 50 c 1
 580 22 558 0 530 0 c 1
 220 0 l 1
 99 0 0 99 0 220 c 9
100 350 m 9
 425 350 l 17
 455 350 480 375 480 405 c 9
 480 445 l 17
 480 475 455 500 425 500 c 1
 220 500 l 1
 154 500 100 446 100 380 c 1
 100 350 l 9
EndSplineSet
Validated: 1
EndChar

StartChar: eacute
Encoding: 233 233 100
Width: 680
VWidth: 1024
Flags: W
HStem: 0 100<154.765 571.562> 250 100<100 467.573> 500 100<154.765 467.573>
VStem: 0 100<154.765 250 350 445.235> 480 100<362.427 487.573>
LayerCount: 2
Fore
SplineSet
0 220 m 9
 0 380 l 17
 0 501 99 600 220 600 c 1
 425 600 l 1
 511 600 580 531 580 445 c 9
 580 405 l 17
 580 319 511 250 425 250 c 9
 100 250 l 17
 100 220 l 1
 100 154 154 100 220 100 c 1
 530 100 l 1
 558 100 580 78 580 50 c 1
 580 22 558 0 530 0 c 1
 220 0 l 1
 99 0 0 99 0 220 c 9
100 350 m 9
 425 350 l 17
 455 350 480 375 480 405 c 9
 480 445 l 17
 480 475 455 500 425 500 c 1
 220 500 l 1
 154 500 100 446 100 380 c 1
 100 350 l 9
EndSplineSet
Validated: 1
EndChar

StartChar: ecircumflex
Encoding: 234 234 101
Width: 680
VWidth: 1024
Flags: W
HStem: 0 100<154.765 571.562> 250 100<100 467.573> 500 100<154.765 467.573>
VStem: 0 100<154.765 250 350 445.235> 480 100<362.427 487.573>
LayerCount: 2
Fore
SplineSet
0 220 m 9
 0 380 l 17
 0 501 99 600 220 600 c 1
 425 600 l 1
 511 600 580 531 580 445 c 9
 580 405 l 17
 580 319 511 250 425 250 c 9
 100 250 l 17
 100 220 l 1
 100 154 154 100 220 100 c 1
 530 100 l 1
 558 100 580 78 580 50 c 1
 580 22 558 0 530 0 c 1
 220 0 l 1
 99 0 0 99 0 220 c 9
100 350 m 9
 425 350 l 17
 455 350 480 375 480 405 c 9
 480 445 l 17
 480 475 455 500 425 500 c 1
 220 500 l 1
 154 500 100 446 100 380 c 1
 100 350 l 9
EndSplineSet
Validated: 1
EndChar

StartChar: edieresis
Encoding: 235 235 102
Width: 680
VWidth: 1024
Flags: W
HStem: 0 100<154.765 571.562> 250 100<100 467.573> 500 100<154.765 467.573>
VStem: 0 100<154.765 250 350 445.235> 480 100<362.427 487.573>
LayerCount: 2
Fore
SplineSet
0 220 m 9
 0 380 l 17
 0 501 99 600 220 600 c 1
 425 600 l 1
 511 600 580 531 580 445 c 9
 580 405 l 17
 580 319 511 250 425 250 c 9
 100 250 l 17
 100 220 l 1
 100 154 154 100 220 100 c 1
 530 100 l 1
 558 100 580 78 580 50 c 1
 580 22 558 0 530 0 c 1
 220 0 l 1
 99 0 0 99 0 220 c 9
100 350 m 9
 425 350 l 17
 455 350 480 375 480 405 c 9
 480 445 l 17
 480 475 455 500 425 500 c 1
 220 500 l 1
 154 500 100 446 100 380 c 1
 100 350 l 9
EndSplineSet
Validated: 1
EndChar

StartChar: igrave
Encoding: 236 236 103
Width: 200
VWidth: 1024
Flags: W
HStem: 0 21G<36 64> 580 20G<36 64>
VStem: 0 100<8.4375 591.562>
LayerCount: 2
Fore
SplineSet
0 50 m 1
 0 550 l 1
 0 578 22 600 50 600 c 1
 78 600 100 578 100 550 c 1
 100 50 l 1
 100 22 78 0 50 0 c 1
 22 0 0 22 0 50 c 1
EndSplineSet
Validated: 1
EndChar

StartChar: iacute
Encoding: 237 237 104
Width: 200
VWidth: 1024
Flags: W
HStem: 0 21G<36 64> 580 20G<36 64>
VStem: 0 100<8.4375 591.562>
LayerCount: 2
Fore
SplineSet
0 50 m 1
 0 550 l 1
 0 578 22 600 50 600 c 1
 78 600 100 578 100 550 c 1
 100 50 l 1
 100 22 78 0 50 0 c 1
 22 0 0 22 0 50 c 1
EndSplineSet
Validated: 1
EndChar

StartChar: icircumflex
Encoding: 238 238 105
Width: 200
VWidth: 1024
Flags: W
HStem: 0 21G<36 64> 580 20G<36 64>
VStem: 0 100<8.4375 591.562>
LayerCount: 2
Fore
SplineSet
0 50 m 1
 0 550 l 1
 0 578 22 600 50 600 c 1
 78 600 100 578 100 550 c 1
 100 50 l 1
 100 22 78 0 50 0 c 1
 22 0 0 22 0 50 c 1
EndSplineSet
Validated: 1
EndChar

StartChar: idieresis
Encoding: 239 239 106
Width: 200
VWidth: 1024
Flags: W
HStem: 0 21G<36 64> 580 20G<36 64>
VStem: 0 100<8.4375 591.562>
LayerCount: 2
Fore
SplineSet
0 50 m 1
 0 550 l 1
 0 578 22 600 50 600 c 1
 78 600 100 578 100 550 c 1
 100 50 l 1
 100 22 78 0 50 0 c 1
 22 0 0 22 0 50 c 1
EndSplineSet
Validated: 1
EndChar

StartChar: ntilde
Encoding: 241 241 107
Width: 700
VWidth: 1024
Flags: W
HStem: 0 21G<36 64 536 564> 500 100<154.765 445.235>
VStem: 0 100<8.4375 445.235> 500 100<8.4375 445.235>
LayerCount: 2
Fore
SplineSet
0 50 m 1
 0 380 l 1
 0 501 99 600 220 600 c 9
 380 600 l 17
 501 600 600 501 600 380 c 1
 600 50 l 1
 600 22 578 0 550 0 c 1
 522 0 500 22 500 50 c 1
 500 380 l 1
 500 446 446 500 380 500 c 9
 220 500 l 17
 154 500 100 446 100 380 c 1
 100 50 l 1
 100 22 78 0 50 0 c 1
 22 0 0 22 0 50 c 1
EndSplineSet
Validated: 1
EndChar

StartChar: ograve
Encoding: 242 242 108
Width: 700
VWidth: 1024
Flags: W
HStem: 0 100<154.765 445.235> 500 100<154.765 445.235>
VStem: 0 100<154.765 445.235> 500 100<154.765 445.235>
LayerCount: 2
Fore
SplineSet
100 220 m 17
 100 154 154 100 220 100 c 1
 380 100 l 1
 446 100 500 154 500 220 c 9
 500 380 l 17
 500 446 446 500 380 500 c 1
 220 500 l 1
 154 500 100 446 100 380 c 9
 100 220 l 17
0 220 m 9
 0 380 l 17
 0 501 99 600 220 600 c 1
 380 600 l 1
 501 600 600 501 600 380 c 9
 600 220 l 17
 600 99 501 0 380 0 c 1
 220 0 l 1
 99 0 0 99 0 220 c 9
EndSplineSet
Validated: 1
EndChar

StartChar: oacute
Encoding: 243 243 109
Width: 700
VWidth: 1024
Flags: W
HStem: 0 100<154.765 445.235> 500 100<154.765 445.235>
VStem: 0 100<154.765 445.235> 500 100<154.765 445.235>
LayerCount: 2
Fore
SplineSet
100 220 m 17
 100 154 154 100 220 100 c 1
 380 100 l 1
 446 100 500 154 500 220 c 9
 500 380 l 17
 500 446 446 500 380 500 c 1
 220 500 l 1
 154 500 100 446 100 380 c 9
 100 220 l 17
0 220 m 9
 0 380 l 17
 0 501 99 600 220 600 c 1
 380 600 l 1
 501 600 600 501 600 380 c 9
 600 220 l 17
 600 99 501 0 380 0 c 1
 220 0 l 1
 99 0 0 99 0 220 c 9
EndSplineSet
Validated: 1
EndChar

StartChar: ocircumflex
Encoding: 244 244 110
Width: 700
VWidth: 1024
Flags: W
HStem: 0 100<154.765 445.235> 500 100<154.765 445.235>
VStem: 0 100<154.765 445.235> 500 100<154.765 445.235>
LayerCount: 2
Fore
SplineSet
100 220 m 17
 100 154 154 100 220 100 c 1
 380 100 l 1
 446 100 500 154 500 220 c 9
 500 380 l 17
 500 446 446 500 380 500 c 1
 220 500 l 1
 154 500 100 446 100 380 c 9
 100 220 l 17
0 220 m 9
 0 380 l 17
 0 501 99 600 220 600 c 1
 380 600 l 1
 501 600 600 501 600 380 c 9
 600 220 l 17
 600 99 501 0 380 0 c 1
 220 0 l 1
 99 0 0 99 0 220 c 9
EndSplineSet
Validated: 1
EndChar

StartChar: otilde
Encoding: 245 245 111
Width: 700
VWidth: 1024
Flags: W
HStem: 0 100<154.765 445.235> 500 100<154.765 445.235>
VStem: 0 100<154.765 445.235> 500 100<154.765 445.235>
LayerCount: 2
Fore
SplineSet
100 220 m 17
 100 154 154 100 220 100 c 1
 380 100 l 1
 446 100 500 154 500 220 c 9
 500 380 l 17
 500 446 446 500 380 500 c 1
 220 500 l 1
 154 500 100 446 100 380 c 9
 100 220 l 17
0 220 m 9
 0 380 l 17
 0 501 99 600 220 600 c 1
 380 600 l 1
 501 600 600 501 600 380 c 9
 600 220 l 17
 600 99 501 0 380 0 c 1
 220 0 l 1
 99 0 0 99 0 220 c 9
EndSplineSet
Validated: 1
EndChar

StartChar: odieresis
Encoding: 246 246 112
Width: 700
VWidth: 1024
Flags: W
HStem: 0 100<154.765 445.235> 500 100<154.765 445.235>
VStem: 0 100<154.765 445.235> 500 100<154.765 445.235>
LayerCount: 2
Fore
SplineSet
100 220 m 17
 100 154 154 100 220 100 c 1
 380 100 l 1
 446 100 500 154 500 220 c 9
 500 380 l 17
 500 446 446 500 380 500 c 1
 220 500 l 1
 154 500 100 446 100 380 c 9
 100 220 l 17
0 220 m 9
 0 380 l 17
 0 501 99 600 220 600 c 1
 380 600 l 1
 501 600 600 501 600 380 c 9
 600 220 l 17
 600 99 501 0 380 0 c 1
 220 0 l 1
 99 0 0 99 0 220 c 9
EndSplineSet
Validated: 1
EndChar

StartChar: oslash
Encoding: 248 248 113
Width: 700
VWidth: 1024
Flags: W
HStem: 0 100<154.765 445.235> 500 100<154.765 445.235>
VStem: 0 100<154.765 445.235> 500 100<154.765 445.235>
LayerCount: 2
Fore
SplineSet
100 220 m 17
 100 154 154 100 220 100 c 1
 380 100 l 1
 446 100 500 154 500 220 c 9
 500 380 l 17
 500 446 446 500 380 500 c 1
 220 500 l 1
 154 500 100 446 100 380 c 9
 100 220 l 17
0 220 m 9
 0 380 l 17
 0 501 99 600 220 600 c 1
 380 600 l 1
 501 600 600 501 600 380 c 9
 600 220 l 17
 600 99 501 0 380 0 c 1
 220 0 l 1
 99 0 0 99 0 220 c 9
EndSplineSet
Validated: 1
EndChar

StartChar: ugrave
Encoding: 249 249 114
Width: 700
VWidth: 1024
Flags: W
HStem: 0 100<154.765 445.235> 500 100<100 500>
VStem: 0 100<154.765 500> 500 100<154.765 500>
LayerCount: 2
Fore
SplineSet
100 220 m 1
 100 154 154 100 220 100 c 9
 380 100 l 17
 446 100 500 154 500 220 c 1
 500 500 l 1
 100 500 l 1
 100 220 l 1
0 220 m 1
 0 550 l 1
 0 578 22 600 50 600 c 1
 550 600 l 1
 578 600 600 578 600 550 c 1
 600 220 l 1
 600 99 501 0 380 0 c 9
 220 0 l 17
 99 0 0 99 0 220 c 1
EndSplineSet
Validated: 1
EndChar

StartChar: uacute
Encoding: 250 250 115
Width: 700
VWidth: 1024
Flags: W
HStem: 0 100<154.765 445.235> 500 100<100 500>
VStem: 0 100<154.765 500> 500 100<154.765 500>
LayerCount: 2
Fore
SplineSet
100 220 m 1
 100 154 154 100 220 100 c 9
 380 100 l 17
 446 100 500 154 500 220 c 1
 500 500 l 1
 100 500 l 1
 100 220 l 1
0 220 m 1
 0 550 l 1
 0 578 22 600 50 600 c 1
 550 600 l 1
 578 600 600 578 600 550 c 1
 600 220 l 1
 600 99 501 0 380 0 c 9
 220 0 l 17
 99 0 0 99 0 220 c 1
EndSplineSet
Validated: 1
EndChar

StartChar: ucircumflex
Encoding: 251 251 116
Width: 700
VWidth: 1024
Flags: W
HStem: 0 100<154.765 445.235> 500 100<100 500>
VStem: 0 100<154.765 500> 500 100<154.765 500>
LayerCount: 2
Fore
SplineSet
100 220 m 1
 100 154 154 100 220 100 c 9
 380 100 l 17
 446 100 500 154 500 220 c 1
 500 500 l 1
 100 500 l 1
 100 220 l 1
0 220 m 1
 0 550 l 1
 0 578 22 600 50 600 c 1
 550 600 l 1
 578 600 600 578 600 550 c 1
 600 220 l 1
 600 99 501 0 380 0 c 9
 220 0 l 17
 99 0 0 99 0 220 c 1
EndSplineSet
Validated: 1
EndChar

StartChar: udieresis
Encoding: 252 252 117
Width: 700
VWidth: 1024
Flags: W
HStem: 0 100<154.765 445.235> 500 100<100 500>
VStem: 0 100<154.765 500> 500 100<154.765 500>
LayerCount: 2
Fore
SplineSet
100 220 m 1
 100 154 154 100 220 100 c 9
 380 100 l 17
 446 100 500 154 500 220 c 1
 500 500 l 1
 100 500 l 1
 100 220 l 1
0 220 m 1
 0 550 l 1
 0 578 22 600 50 600 c 1
 550 600 l 1
 578 600 600 578 600 550 c 1
 600 220 l 1
 600 99 501 0 380 0 c 9
 220 0 l 17
 99 0 0 99 0 220 c 1
EndSplineSet
Validated: 1
EndChar

StartChar: yacute
Encoding: 253 253 118
Width: 700
VWidth: 1024
Flags: W
HStem: 0 21G<286 314> 205 100<154.765 250 350 445.235> 580 20G<36 64 536 564>
VStem: 0 100<359.765 591.562> 250 100<8.4375 205> 500 100<359.765 591.562>
LayerCount: 2
Fore
SplineSet
0 425 m 1
 0 550 l 1
 0 578 22 600 50 600 c 1
 78 600 100 578 100 550 c 1
 100 425 l 1
 100 359 154 305 220 305 c 9
 380 305 l 17
 446 305 500 359 500 425 c 1
 500 550 l 1
 500 578 522 600 550 600 c 1
 578 600 600 578 600 550 c 1
 600 425 l 1
 600 304 501 205 380 205 c 1
 350 205 l 1
 350 50 l 1
 350 22 328 0 300 0 c 1
 272 0 250 22 250 50 c 1
 250 205 l 1
 220 205 l 1
 99 205 0 304 0 425 c 1
EndSplineSet
Validated: 1
EndChar

StartChar: ydieresis
Encoding: 255 255 119
Width: 700
VWidth: 1024
Flags: W
HStem: 0 21G<286 314> 205 100<154.765 250 350 445.235> 580 20G<36 64 536 564>
VStem: 0 100<359.765 591.562> 250 100<8.4375 205> 500 100<359.765 591.562>
LayerCount: 2
Fore
SplineSet
0 425 m 1
 0 550 l 1
 0 578 22 600 50 600 c 1
 78 600 100 578 100 550 c 1
 100 425 l 1
 100 359 154 305 220 305 c 9
 380 305 l 17
 446 305 500 359 500 425 c 1
 500 550 l 1
 500 578 522 600 550 600 c 1
 578 600 600 578 600 550 c 1
 600 425 l 1
 600 304 501 205 380 205 c 1
 350 205 l 1
 350 50 l 1
 350 22 328 0 300 0 c 1
 272 0 250 22 250 50 c 1
 250 205 l 1
 220 205 l 1
 99 205 0 304 0 425 c 1
EndSplineSet
Validated: 1
EndChar

StartChar: Ydieresis
Encoding: 376 376 120
Width: 700
VWidth: 1024
Flags: W
HStem: 0 21G<286 314> 205 100<154.765 250 350 445.235> 580 20G<36 64 536 564>
VStem: 0 100<359.765 591.562> 250 100<8.4375 205> 500 100<359.765 591.562>
LayerCount: 2
Fore
SplineSet
0 425 m 1
 0 550 l 1
 0 578 22 600 50 600 c 1
 78 600 100 578 100 550 c 1
 100 425 l 1
 100 359 154 305 220 305 c 9
 380 305 l 17
 446 305 500 359 500 425 c 1
 500 550 l 1
 500 578 522 600 550 600 c 1
 578 600 600 578 600 550 c 1
 600 425 l 1
 600 304 501 205 380 205 c 1
 350 205 l 1
 350 50 l 1
 350 22 328 0 300 0 c 1
 272 0 250 22 250 50 c 1
 250 205 l 1
 220 205 l 1
 99 205 0 304 0 425 c 1
EndSplineSet
Validated: 1
EndChar

StartChar: uniE000
Encoding: 57344 57344 121
Width: 700
VWidth: 1024
Flags: W
HStem: 0 100<154.765 591.562> 250 100<100 461.562> 500 100<154.765 591.562>
VStem: 0 100<154.765 250 350 445.235>
CounterMasks: 1 e0
LayerCount: 2
Fore
SplineSet
0 220 m 9
 0 380 l 17
 0 501 99 600 220 600 c 1
 550 600 l 1
 578 600 600 578 600 550 c 1
 600 522 578 500 550 500 c 1
 220 500 l 1
 154 500 100 446 100 380 c 1
 100 350 l 1
 420 350 l 1
 448 350 470 328 470 300 c 1
 470 272 448 250 420 250 c 1
 100 250 l 1
 100 220 l 1
 100 154 154 100 220 100 c 1
 550 100 l 1
 578 100 600 78 600 50 c 1
 600 22 578 0 550 0 c 1
 220 0 l 1
 99 0 0 99 0 220 c 9
EndSplineSet
EndChar

StartChar: uniE001
Encoding: 57345 57345 122
Width: 620
VWidth: 1024
Flags: W
HStem: 0 21G<36 64 456 484> 270 100<100 366.973> 580 20G<36 64 456 484>
VStem: 0 100<8.4375 270 370 591.562> 420 100<8.4375 216.973 334 591.562>
LayerCount: 2
Fore
SplineSet
0 50 m 2
 0 550 l 2
 0 578 22 600 50 600 c 0
 78 600 100 578 100 550 c 2
 100 370 l 1
 300 370 l 2
 344 370 385 357 420 334 c 1
 420 550 l 2
 420 578 442 600 470 600 c 0
 498 600 520 578 520 550 c 2
 520 150 l 1
 520 50 l 2
 520 22 498 0 470 0 c 0
 442 0 420 22 420 50 c 2
 420 150 l 2
 420 216 366 270 300 270 c 2
 100 270 l 1
 100 50 l 2
 100 22 78 0 50 0 c 0
 22 0 0 22 0 50 c 2
EndSplineSet
EndChar

StartChar: uniE002
Encoding: 57346 57346 123
Width: 750
VWidth: 1024
Flags: W
HStem: 0 100<404.765 641.562> 250 100<100 250 350 467.573> 500 100<154.765 467.573>
VStem: 0 100<8.4375 250 350 445.235> 250 100<154.765 250> 480 100<362.427 487.573>
CounterMasks: 1 e0
LayerCount: 2
Fore
SplineSet
0 50 m 1
 0 380 l 1
 0 501 99 600 220 600 c 1
 425 600 l 1
 511 600 580 531 580 445 c 9
 580 405 l 17
 580 319 511 250 425 250 c 1
 350 250 l 9
 350 220 l 17
 350 154 404 100 470 100 c 1
 600 100 l 1
 628 100 650 78 650 50 c 1
 650 22 628 0 600 0 c 1
 470 0 l 1
 349 0 250 99 250 220 c 9
 250 250 l 17
 100 250 l 1
 100 50 l 1
 100 22 78 0 50 0 c 1
 22 0 0 22 0 50 c 1
100 350 m 9
 425 350 l 17
 455 350 480 375 480 405 c 9
 480 445 l 17
 480 475 455 500 425 500 c 1
 220 500 l 1
 154 500 100 446 100 380 c 1
 100 350 l 9
EndSplineSet
EndChar

StartChar: uniE003
Encoding: 57347 57347 124
Width: 700
VWidth: 1024
Flags: W
HStem: 0 21G<286 314> 500 100<8.4375 250 350 591.562>
VStem: 250 100<8.4375 500>
LayerCount: 2
Fore
SplineSet
0 550 m 1
 0 578 22 600 50 600 c 1
 550 600 l 1
 578 600 600 578 600 550 c 1
 600 522 578 500 550 500 c 1
 350 500 l 1
 350 50 l 1
 350 22 328 0 300 0 c 1
 272 0 250 22 250 50 c 1
 250 500 l 1
 50 500 l 1
 22 500 0 522 0 550 c 1
EndSplineSet
EndChar
